<?xml version="1.0" encoding="UTF-8"?>
<svg version="1.1" xmlns="http://www.w3.org/2000/svg" width="512" height="512">
<path d="M0 0 C0.87591797 -0.06251953 1.75183594 -0.12503906 2.65429688 -0.18945312 C5.26099244 -0.25466992 7.31494832 -0.19636492 9.8125 0.5625 C12.18690917 2.91615009 13.45991358 5.53222273 14.8125 8.5625 C15.616875 10.11324219 15.616875 10.11324219 16.4375 11.6953125 C18.95174805 17.16665911 21.2356905 22.61426421 23.1875 28.3125 C25.21574826 34.16690743 27.6705127 39.62769066 30.37841797 45.18383789 C33.54492037 51.78083909 36.28699404 58.53664676 39.03018188 65.31729126 C42.85321966 74.7620662 46.74648632 83.82284187 52.0859375 92.53515625 C54.32205274 96.45594655 55.92195791 100.53999743 57.52490234 104.74291992 C60.26020914 111.8722162 63.53658147 118.72816038 66.86181641 125.59814453 C67.74119493 127.41516549 68.61124836 129.23669154 69.48046875 131.05859375 C69.98191406 132.09113281 70.48335938 133.12367188 71 134.1875 C71.42667969 135.06664062 71.85335938 135.94578125 72.29296875 136.8515625 C73.52438623 139.04848727 74.78732778 140.92245101 76.28515625 142.9296875 C78.85048708 146.44657321 80.46002969 150.03576687 82.0625 154.0625 C84.34823369 159.54459052 86.89382515 164.60363318 90.0625 169.625 C93.84377107 175.65245896 96.94113701 181.86182895 99.9375 188.3125 C108.59615301 206.84516379 118.91731875 224.47810806 129.37475586 242.04125977 C135.84261754 252.92881009 141.7540877 263.87584252 146.48828125 275.63671875 C147.64565044 278.54121294 147.64565044 278.54121294 149.45703125 280.53125 C152.661996 285.33407901 151.46028361 293.2885666 150.37890625 298.75390625 C147.36246938 306.82896395 140.89817419 312.05115021 133.33984375 315.5546875 C130.8125 316.5625 130.8125 316.5625 127.8203125 317.20703125 C123.43150903 319.18484268 122.00596972 322.25231366 119.75 326.375 C119.31880859 327.13820557 118.88761719 327.90141113 118.44335938 328.68774414 C113.1967498 338.17986097 109.44234013 347.78609434 107.8125 358.5625 C108.555 358.913125 109.2975 359.26375 110.0625 359.625 C113.70748258 362.19305591 114.85423408 364.57343979 116.8125 368.5625 C116.8125 369.2225 116.8125 369.8825 116.8125 370.5625 C117.52535156 370.82933594 118.23820312 371.09617187 118.97265625 371.37109375 C127.80889874 375.0781831 134.43193192 379.93512164 138.8125 388.5625 C140.98803203 395.08909609 140.12676019 399.54798929 137.3125 405.6875 C131.49921367 416.41038314 121.93759839 419.83867713 110.66500854 423.20352173 C105.79761244 424.57049773 100.90163624 425.82531355 96.0012207 427.06784058 C92.28472547 428.01075824 88.57305807 428.97208021 84.86096191 429.93214417 C82.95158697 430.4258325 81.04199957 430.91869988 79.13220215 431.41075134 C70.17740554 433.7188955 61.23972947 436.08754835 52.3125 438.5 C51.2014389 438.80020554 51.2014389 438.80020554 50.06793213 439.10647583 C27.723395 445.15664709 5.44313401 451.47777357 -16.73828125 458.1015625 C-18.00269043 458.47909668 -19.26709961 458.85663086 -20.56982422 459.24560547 C-22.86839334 459.93539719 -25.16569166 460.62944415 -27.46142578 461.32861328 C-28.45255371 461.62751465 -29.44368164 461.92641602 -30.46484375 462.234375 C-31.73702759 462.62254395 -31.73702759 462.62254395 -33.03491211 463.01855469 C-35.1875 463.5625 -35.1875 463.5625 -38.1875 463.5625 C-37.9709375 464.85285156 -37.754375 466.14320313 -37.53125 467.47265625 C-37.24970898 469.19005648 -36.96847525 470.90750711 -36.6875 472.625 C-36.54441406 473.47255859 -36.40132813 474.32011719 -36.25390625 475.19335938 C-35.03799934 482.69145199 -34.47722608 489.28755423 -37.1875 496.5625 C-40.9248856 499.0540904 -42.76081583 499.02043285 -47.1875 498.5625 C-52.36605074 495.65745934 -55.12514769 490.48752021 -58.1875 485.5625 C-58.48140625 486.21734375 -58.7753125 486.8721875 -59.078125 487.546875 C-62.0269414 493.54619112 -65.43266646 498.30181202 -70.125 503 C-70.61452148 503.49532227 -71.10404297 503.99064453 -71.60839844 504.50097656 C-76.07099081 508.81648283 -80.62197594 512.26318886 -86.9375 513 C-90.1875 512.5625 -90.1875 512.5625 -92.0625 511.1875 C-94.47789927 507.69858994 -94.62029774 504.69646465 -94.1875 500.5625 C-93.52793932 497.91569156 -92.75733886 495.31229527 -91.98828125 492.6953125 C-90.55051361 487.07048494 -89.90154856 481.31689132 -89.1875 475.5625 C-89.7959375 475.79324219 -90.404375 476.02398437 -91.03125 476.26171875 C-115.75501657 485.46041425 -146.98491782 496.0889101 -172.69921875 485.53125 C-179.84841584 482.12358118 -186.50106662 477.78462523 -193.1875 473.5625 C-194.01636719 473.08039063 -194.84523437 472.59828125 -195.69921875 472.1015625 C-204.79528729 466.60899755 -210.95890973 458.17143664 -215.1875 448.5625 C-215.67347656 447.6240625 -216.15945312 446.685625 -216.66015625 445.71875 C-223.90836325 431.32140032 -228.34418817 415.65381637 -232.73046875 400.1875 C-232.9507373 399.4126123 -233.17100586 398.63772461 -233.39794922 397.83935547 C-233.95238657 395.85768038 -234.48690666 393.87046136 -235.01953125 391.8828125 C-236.27696665 388.30816336 -238.01801421 385.65170694 -240.1875 382.5625 C-240.6825 381.0775 -240.6825 381.0775 -241.1875 379.5625 C-242.50985184 378.87430829 -243.84516658 378.21085424 -245.1875 377.5625 C-252.07749442 371.4532803 -257.13232847 363.55607874 -258.5234375 354.3359375 C-258.57566636 351.71404889 -258.35389372 349.21559326 -257.70581055 346.671875 C-256.0063783 338.83897784 -259.845741 333.40397094 -263.625 326.75 C-264.94125792 324.33566498 -266.23699063 321.9105596 -267.53125 319.484375 C-267.85202011 318.88668808 -268.17279022 318.28900116 -268.50328064 317.67320251 C-276.19516741 303.25759946 -280.69965484 288.10264496 -284.7421875 272.328125 C-284.99709961 271.33876953 -285.25201172 270.34941406 -285.51464844 269.33007812 C-285.93670969 267.59405258 -286.32108722 265.84796369 -286.64941406 264.09179688 C-287.06641643 261.69219704 -287.06641643 261.69219704 -288.1875 258.5625 C-290.43710196 257.13931349 -290.43710196 257.13931349 -293.1875 256.5625 C-313.26355304 245.81835023 -313.26355304 245.81835023 -316.1875 237.5625 C-317.07489075 233.31570139 -317.31084096 229.20798433 -317.42602539 224.89013672 C-317.87086153 210.14154321 -322.80010658 198.82238014 -329.14404297 185.72607422 C-330.81178234 182.26807086 -332.4382372 178.79108257 -334.0625 175.3125 C-334.61679687 174.13171875 -335.17109375 172.9509375 -335.7421875 171.734375 C-338.84919408 164.91575515 -339.65062713 159.58832151 -339.9375 152.125 C-340.02064453 150.61776367 -340.02064453 150.61776367 -340.10546875 149.08007812 C-340.67098732 135.58474868 -337.98106273 123.60576756 -333.5 110.9375 C-332.88608398 109.10832031 -332.88608398 109.10832031 -332.25976562 107.2421875 C-328.41735855 96.1930538 -323.47362117 86.12802154 -315.1875 77.75 C-314.66406006 77.20504883 -314.14062012 76.66009766 -313.60131836 76.09863281 C-312.58142918 75.03998563 -311.55687678 73.98580335 -310.52685547 72.93701172 C-309.43341824 71.81487326 -308.37022705 70.66332913 -307.31640625 69.50390625 C-293.05124772 54.10038095 -271.96936037 45.16533813 -251.68209839 41.9302063 C-245.96158851 40.97626715 -240.37954267 39.65576116 -234.7588501 38.23350525 C-222.76454014 35.20579487 -210.76102789 32.60610721 -198.578125 30.46484375 C-197.87791229 30.34168226 -197.17769958 30.21852077 -196.45626831 30.09162712 C-191.45219215 29.21497426 -186.44511562 28.3561613 -181.4375 27.5 C-175.71172775 26.51942135 -169.98730224 25.53156384 -164.265625 24.52734375 C-163.57488388 24.40620964 -162.88414276 24.28507553 -162.17247009 24.16027069 C-149.97715379 22.00727727 -137.96801786 19.27474303 -125.96235657 16.24118042 C-100.90468761 10.11252156 -75.48053089 6.51666316 -49.85083008 3.85986328 C-47.76034285 3.62645844 -45.67680379 3.33071745 -43.59765625 3.01171875 C-38.82488414 2.38300307 -34.05799229 2.23780829 -29.25 2.0625 C-21.67240754 1.81087342 -21.67240754 1.81087342 -14.1328125 1.06640625 C-9.41274601 0.46354627 -4.75353217 0.15242497 0 0 Z M-162.1875 389.5625 C-162.5175 390.2225 -162.8475 390.8825 -163.1875 391.5625 C-162.5275 391.5625 -161.8675 391.5625 -161.1875 391.5625 C-161.5175 390.9025 -161.8475 390.2425 -162.1875 389.5625 Z M-133.1875 450.5625 C-133.1875 450.8925 -133.1875 451.2225 -133.1875 451.5625 C-131.5375 451.5625 -129.8875 451.5625 -128.1875 451.5625 C-128.1875 451.2325 -128.1875 450.9025 -128.1875 450.5625 C-129.8375 450.5625 -131.4875 450.5625 -133.1875 450.5625 Z " fill="#B93737" transform="translate(350.1875,-0.5625)"/>
<path d="M0 0 C0.87591797 -0.06251953 1.75183594 -0.12503906 2.65429688 -0.18945312 C5.26099244 -0.25466992 7.31494832 -0.19636492 9.8125 0.5625 C12.18690917 2.91615009 13.45991358 5.53222273 14.8125 8.5625 C15.616875 10.11324219 15.616875 10.11324219 16.4375 11.6953125 C18.95174805 17.16665911 21.2356905 22.61426421 23.1875 28.3125 C25.21574826 34.16690743 27.6705127 39.62769066 30.37841797 45.18383789 C33.54492037 51.78083909 36.28699404 58.53664676 39.03018188 65.31729126 C42.85321966 74.7620662 46.74648632 83.82284187 52.0859375 92.53515625 C54.32205274 96.45594655 55.92195791 100.53999743 57.52490234 104.74291992 C60.26020914 111.8722162 63.53658147 118.72816038 66.86181641 125.59814453 C67.74119493 127.41516549 68.61124836 129.23669154 69.48046875 131.05859375 C69.98191406 132.09113281 70.48335938 133.12367188 71 134.1875 C71.42667969 135.06664062 71.85335938 135.94578125 72.29296875 136.8515625 C73.52438623 139.04848727 74.78732778 140.92245101 76.28515625 142.9296875 C78.85048708 146.44657321 80.46002969 150.03576687 82.0625 154.0625 C84.34823369 159.54459052 86.89382515 164.60363318 90.0625 169.625 C93.84377107 175.65245896 96.94113701 181.86182895 99.9375 188.3125 C108.59615301 206.84516379 118.91731875 224.47810806 129.37475586 242.04125977 C135.84261754 252.92881009 141.7540877 263.87584252 146.48828125 275.63671875 C147.64565044 278.54121294 147.64565044 278.54121294 149.45703125 280.53125 C152.661996 285.33407901 151.46028361 293.2885666 150.37890625 298.75390625 C147.36246938 306.82896395 140.89817419 312.05115021 133.33984375 315.5546875 C130.8125 316.5625 130.8125 316.5625 127.8203125 317.20703125 C123.43150903 319.18484268 122.00596972 322.25231366 119.75 326.375 C119.31880859 327.13820557 118.88761719 327.90141113 118.44335938 328.68774414 C113.1967498 338.17986097 109.44234013 347.78609434 107.8125 358.5625 C108.555 358.913125 109.2975 359.26375 110.0625 359.625 C113.70748258 362.19305591 114.85423408 364.57343979 116.8125 368.5625 C116.8125 369.2225 116.8125 369.8825 116.8125 370.5625 C117.52535156 370.82933594 118.23820312 371.09617187 118.97265625 371.37109375 C127.80889874 375.0781831 134.43193192 379.93512164 138.8125 388.5625 C140.98803203 395.08909609 140.12676019 399.54798929 137.3125 405.6875 C131.49921367 416.41038314 121.93759839 419.83867713 110.66500854 423.20352173 C105.79761244 424.57049773 100.90163624 425.82531355 96.0012207 427.06784058 C92.28472547 428.01075824 88.57305807 428.97208021 84.86096191 429.93214417 C82.95158697 430.4258325 81.04199957 430.91869988 79.13220215 431.41075134 C70.17740554 433.7188955 61.23972947 436.08754835 52.3125 438.5 C51.2014389 438.80020554 51.2014389 438.80020554 50.06793213 439.10647583 C27.723395 445.15664709 5.44313401 451.47777357 -16.73828125 458.1015625 C-18.00269043 458.47909668 -19.26709961 458.85663086 -20.56982422 459.24560547 C-22.86839334 459.93539719 -25.16569166 460.62944415 -27.46142578 461.32861328 C-28.45255371 461.62751465 -29.44368164 461.92641602 -30.46484375 462.234375 C-31.73702759 462.62254395 -31.73702759 462.62254395 -33.03491211 463.01855469 C-35.1875 463.5625 -35.1875 463.5625 -38.1875 463.5625 C-37.9709375 464.85285156 -37.754375 466.14320313 -37.53125 467.47265625 C-37.24970898 469.19005648 -36.96847525 470.90750711 -36.6875 472.625 C-36.54441406 473.47255859 -36.40132813 474.32011719 -36.25390625 475.19335938 C-35.03799934 482.69145199 -34.47722608 489.28755423 -37.1875 496.5625 C-40.9248856 499.0540904 -42.76081583 499.02043285 -47.1875 498.5625 C-52.36605074 495.65745934 -55.12514769 490.48752021 -58.1875 485.5625 C-58.48140625 486.21734375 -58.7753125 486.8721875 -59.078125 487.546875 C-62.0269414 493.54619112 -65.43266646 498.30181202 -70.125 503 C-70.61452148 503.49532227 -71.10404297 503.99064453 -71.60839844 504.50097656 C-76.07099081 508.81648283 -80.62197594 512.26318886 -86.9375 513 C-90.1875 512.5625 -90.1875 512.5625 -92.0625 511.1875 C-94.47789927 507.69858994 -94.62029774 504.69646465 -94.1875 500.5625 C-93.52793932 497.91569156 -92.75733886 495.31229527 -91.98828125 492.6953125 C-90.55051361 487.07048494 -89.90154856 481.31689132 -89.1875 475.5625 C-89.7959375 475.79324219 -90.404375 476.02398437 -91.03125 476.26171875 C-115.75501657 485.46041425 -146.98491782 496.0889101 -172.69921875 485.53125 C-179.84841584 482.12358118 -186.50106662 477.78462523 -193.1875 473.5625 C-194.01636719 473.08039063 -194.84523437 472.59828125 -195.69921875 472.1015625 C-204.79528729 466.60899755 -210.95890973 458.17143664 -215.1875 448.5625 C-215.67347656 447.6240625 -216.15945312 446.685625 -216.66015625 445.71875 C-223.90836325 431.32140032 -228.34418817 415.65381637 -232.73046875 400.1875 C-232.9507373 399.4126123 -233.17100586 398.63772461 -233.39794922 397.83935547 C-233.95238657 395.85768038 -234.48690666 393.87046136 -235.01953125 391.8828125 C-236.27696665 388.30816336 -238.01801421 385.65170694 -240.1875 382.5625 C-240.6825 381.0775 -240.6825 381.0775 -241.1875 379.5625 C-242.50985184 378.87430829 -243.84516658 378.21085424 -245.1875 377.5625 C-252.07749442 371.4532803 -257.13232847 363.55607874 -258.5234375 354.3359375 C-258.57566636 351.71404889 -258.35389372 349.21559326 -257.70581055 346.671875 C-256.0063783 338.83897784 -259.845741 333.40397094 -263.625 326.75 C-264.94125792 324.33566498 -266.23699063 321.9105596 -267.53125 319.484375 C-267.85202011 318.88668808 -268.17279022 318.28900116 -268.50328064 317.67320251 C-276.19516741 303.25759946 -280.69965484 288.10264496 -284.7421875 272.328125 C-284.99709961 271.33876953 -285.25201172 270.34941406 -285.51464844 269.33007812 C-285.93670969 267.59405258 -286.32108722 265.84796369 -286.64941406 264.09179688 C-287.06641643 261.69219704 -287.06641643 261.69219704 -288.1875 258.5625 C-290.43710196 257.13931349 -290.43710196 257.13931349 -293.1875 256.5625 C-313.26355304 245.81835023 -313.26355304 245.81835023 -316.1875 237.5625 C-317.07489075 233.31570139 -317.31084096 229.20798433 -317.42602539 224.89013672 C-317.87086153 210.14154321 -322.80010658 198.82238014 -329.14404297 185.72607422 C-330.81178234 182.26807086 -332.4382372 178.79108257 -334.0625 175.3125 C-334.61679687 174.13171875 -335.17109375 172.9509375 -335.7421875 171.734375 C-338.84919408 164.91575515 -339.65062713 159.58832151 -339.9375 152.125 C-340.02064453 150.61776367 -340.02064453 150.61776367 -340.10546875 149.08007812 C-340.67098732 135.58474868 -337.98106273 123.60576756 -333.5 110.9375 C-332.88608398 109.10832031 -332.88608398 109.10832031 -332.25976562 107.2421875 C-328.41735855 96.1930538 -323.47362117 86.12802154 -315.1875 77.75 C-314.66406006 77.20504883 -314.14062012 76.66009766 -313.60131836 76.09863281 C-312.58142918 75.03998563 -311.55687678 73.98580335 -310.52685547 72.93701172 C-309.43341824 71.81487326 -308.37022705 70.66332913 -307.31640625 69.50390625 C-293.05124772 54.10038095 -271.96936037 45.16533813 -251.68209839 41.9302063 C-245.96158851 40.97626715 -240.37954267 39.65576116 -234.7588501 38.23350525 C-222.76454014 35.20579487 -210.76102789 32.60610721 -198.578125 30.46484375 C-197.87791229 30.34168226 -197.17769958 30.21852077 -196.45626831 30.09162712 C-191.45219215 29.21497426 -186.44511562 28.3561613 -181.4375 27.5 C-175.71172775 26.51942135 -169.98730224 25.53156384 -164.265625 24.52734375 C-163.57488388 24.40620964 -162.88414276 24.28507553 -162.17247009 24.16027069 C-149.97715379 22.00727727 -137.96801786 19.27474303 -125.96235657 16.24118042 C-100.90468761 10.11252156 -75.48053089 6.51666316 -49.85083008 3.85986328 C-47.76034285 3.62645844 -45.67680379 3.33071745 -43.59765625 3.01171875 C-38.82488414 2.38300307 -34.05799229 2.23780829 -29.25 2.0625 C-21.67240754 1.81087342 -21.67240754 1.81087342 -14.1328125 1.06640625 C-9.41274601 0.46354627 -4.75353217 0.15242497 0 0 Z M-51.640625 16.515625 C-52.88553711 16.72034424 -54.13044922 16.92506348 -55.41308594 17.13598633 C-56.75459233 17.36128236 -58.09606279 17.58679245 -59.4375 17.8125 C-62.26005547 18.28214173 -65.0830785 18.74892081 -67.90625 19.21484375 C-68.61376404 19.33200241 -69.32127808 19.44916107 -70.05023193 19.56987 C-74.28748017 20.2666675 -78.52789799 20.91119377 -82.78125 21.50390625 C-102.50306271 24.27111629 -121.9721008 28.55204812 -141.23071289 33.61743164 C-149.86587012 35.87898756 -158.42064941 37.52213234 -167.26608276 38.71429443 C-170.96700004 39.21567621 -174.66281572 39.75275263 -178.359375 40.28515625 C-179.10497177 40.3919873 -179.85056854 40.49881836 -180.61875916 40.60888672 C-198.67663992 43.20505308 -216.36360369 46.3779432 -233.97436523 51.18041992 C-241.03811157 53.08713008 -247.78593599 54.3485674 -255.06640625 55.09765625 C-260.04532542 55.8391974 -264.57744069 57.58812949 -269.1875 59.5625 C-267.89619762 63.00369359 -266.39548404 66.05494798 -264.46484375 69.1796875 C-257.00502391 81.41134842 -249.54048243 93.73764041 -244.06396484 107.00024414 C-241.02402955 114.21532639 -237.45404992 121.16666566 -233.875 128.125 C-233.54656097 128.76452606 -233.21812195 129.40405212 -232.87973022 130.06295776 C-229.17584207 137.24142677 -225.35771037 144.18500446 -220.625 150.75 C-215.69766161 157.66391295 -213.26752671 164.89465859 -210.92919922 173.00537109 C-210.11840466 175.80071744 -209.26768361 178.58192581 -208.41015625 181.36328125 C-207.22774165 185.20357037 -206.05563912 189.04656999 -204.8984375 192.89453125 C-204.32839739 194.78393637 -203.75804946 196.67324863 -203.1875 198.5625 C-202.90406738 199.50445221 -202.62063477 200.44640442 -202.32861328 201.41690063 C-199.93170259 209.30321581 -197.35248312 217.11964191 -194.68846512 224.91900826 C-193.95352909 227.07136255 -193.22135104 229.22463877 -192.48983765 231.37815857 C-190.41270736 237.49176115 -188.33145154 243.60395379 -186.24707031 249.71508789 C-184.71573324 254.2059515 -183.18860685 258.69823245 -181.6640625 263.19140625 C-181.41789059 263.91597267 -181.17171867 264.64053909 -180.91808701 265.38706207 C-177.76647819 274.67677929 -174.70191125 283.98144219 -172.1131897 293.44715881 C-170.18980239 300.26805186 -166.94074688 306.20919604 -163.47265625 312.35546875 C-161.09708576 316.61714053 -159.16193466 321.01538855 -157.25 325.5 C-152.76818114 335.91840326 -147.48510262 346.11609607 -141.1875 355.5625 C-141.5625 358.25 -141.5625 358.25 -142.1875 360.5625 C-147.72381985 359.91511743 -149.71466694 357.43656548 -153.18945312 353.3125 C-156.6415251 348.56126115 -159.02284783 343.39645386 -161.4375 338.0625 C-162.19160156 336.44794922 -162.19160156 336.44794922 -162.9609375 334.80078125 C-165.48531239 329.37535773 -167.93825723 323.91880323 -170.34375 318.43969727 C-171.54279783 315.77202402 -172.85310719 313.16456598 -174.1875 310.5625 C-195.4523117 318.14886525 -207.64387342 340.81646711 -218.62646484 358.98144531 C-219.69317829 360.74517609 -220.76674523 362.50477528 -221.84619141 364.26074219 C-222.37776855 365.13118164 -222.9093457 366.00162109 -223.45703125 366.8984375 C-223.93374268 367.67493652 -224.4104541 368.45143555 -224.90161133 369.25146484 C-227.42096798 373.61422944 -227.42096798 373.61422944 -228.03125 378.46484375 C-227.08595913 380.81494188 -225.92631765 383.00986473 -224.7121582 385.23095703 C-218.65137995 396.43408253 -215.03634344 408.4394302 -211.16552734 420.52929688 C-209.93292869 424.35201423 -208.64364212 428.14794225 -207.3125 431.9375 C-206.96445313 432.93523437 -206.61640625 433.93296875 -206.2578125 434.9609375 C-205.23254113 437.64970967 -205.23254113 437.64970967 -203.53515625 440.25390625 C-202.1875 442.5625 -202.1875 442.5625 -202.5 445.125 C-202.726875 445.929375 -202.95375 446.73375 -203.1875 447.5625 C-203.59515852 451.49494119 -203.59515852 451.49494119 -201.5 453.74609375 C-194.05936774 460.99819647 -186.64914651 465.46109563 -177.35546875 470.0078125 C-175.20172125 471.06476873 -173.05869691 472.14379979 -170.92578125 473.2421875 C-169.35376953 474.05042969 -169.35376953 474.05042969 -167.75 474.875 C-166.80253906 475.36613281 -165.85507813 475.85726563 -164.87890625 476.36328125 C-148.29997714 483.75040931 -123.7328241 476.52301533 -107.26171875 471.70703125 C-100.90787717 469.87568043 -95.65040171 468.40819943 -89.1875 470.5625 C-89.67719295 463.95164524 -91.52192742 458.61272986 -94.1875 452.5625 C-96.3369947 452.9846839 -98.48638085 453.407427 -100.63525391 453.83276367 C-102.48217251 454.19829622 -104.32951454 454.56169499 -106.17724609 454.9230957 C-110.95227077 455.86850889 -115.6234608 456.9362886 -120.3125 458.25 C-126.91286665 459.81414939 -133.55920273 460.07524159 -140.3125 460.375 C-141.95822998 460.45463989 -141.95822998 460.45463989 -143.63720703 460.53588867 C-155.94087658 460.9477386 -168.48229368 459.27275711 -178.5 451.5625 C-184.81874718 445.38642869 -187.40417513 437.31217694 -187.81640625 428.6171875 C-187.82032974 426.22385918 -187.79796072 423.83035093 -187.75 421.4375 C-187.76095703 420.23996094 -187.77191406 419.04242188 -187.78320312 417.80859375 C-187.68072372 405.33343417 -183.78334417 396.63855553 -175.36328125 387.60546875 C-158.24766091 371.07666968 -130.34956302 361.68472292 -107.28076172 358.11669922 C-101.99971848 357.17052967 -96.89980882 355.61082334 -91.75 354.125 C-82.9149958 351.66090928 -74.27520312 349.76360862 -65.17993164 348.62304688 C-49.29957769 346.61998264 -33.33517491 343.81550535 -18.1875 338.5625 C-16.41956266 338.0114546 -14.64879923 337.46937383 -12.875 336.9375 C-12.06804687 336.69515625 -11.26109375 336.4528125 -10.4296875 336.203125 C-8.46807619 335.64266462 -6.48498875 335.15851428 -4.5 334.6875 C-0.69385498 333.77766454 2.93395926 332.48371131 6.625 331.1875 C12.43171752 329.17589766 18.22330723 327.75005567 24.25 326.5625 C30.32787924 325.3627901 36.22631149 323.96200443 42.125 322.0625 C42.785 321.85125488 43.445 321.64000977 44.125 321.42236328 C47.10507883 320.45992248 50.07538805 319.47274887 53.0390625 318.4609375 C62.00516162 315.60312975 70.93764113 314.54085733 80.28295898 313.60107422 C81.32653564 313.4929541 82.3701123 313.38483398 83.4453125 313.2734375 C84.38262207 313.18368652 85.31993164 313.09393555 86.28564453 313.00146484 C88.86004924 312.55423976 90.63701849 312.00671155 92.8125 310.5625 C93.63409131 307.60358831 93.63409131 307.60358831 93.875 304.125 C94.9753806 294.84765319 96.665519 286.79020372 101.515625 278.73046875 C102.83083174 276.6002781 102.83083174 276.6002781 103.859375 274.42578125 C107.52730974 267.02346368 113.12654951 261.44760812 118.8125 255.5625 C117.25274643 249.96361578 114.54444281 245.34576415 111.625 240.375 C110.54301993 238.50332673 109.46235652 236.63089189 108.3828125 234.7578125 C107.80692383 233.76040039 107.23103516 232.76298828 106.63769531 231.73535156 C103.39156541 226.09240022 100.17949702 220.43071057 97 214.75 C96.67459229 214.16866302 96.34918457 213.58732605 96.01391602 212.9883728 C92.39910467 206.50739371 88.9401445 200.05677626 86.125 193.1875 C83.09220526 185.80638657 79.23343007 179.03706766 75.16137695 172.18017578 C72.05816375 166.91867242 69.42201467 161.60581873 66.95166016 156.02026367 C65.56785238 153.03466726 63.89555828 150.35500347 62.0625 147.625 C53.84452283 134.60672993 48.30489142 119.81542834 42.61328125 105.55859375 C42.20464844 104.54925781 41.79601562 103.53992188 41.375 102.5 C41.02566406 101.62214844 40.67632812 100.74429688 40.31640625 99.83984375 C38.99200799 96.95368754 37.53405634 94.26903847 35.97265625 91.5078125 C32.59397349 85.38268784 30.11444966 79.04970169 27.6875 72.5 C26.85214972 70.27972689 26.01622037 68.05967156 25.1796875 65.83984375 C24.78491211 64.78651855 24.39013672 63.73319336 23.98339844 62.64794922 C22.31900899 58.26209562 20.57744267 53.90871726 18.8125 49.5625 C17.91789062 49.52511719 17.02328125 49.48773438 16.1015625 49.44921875 C-1.58619058 48.48751789 -18.07951681 41.37518785 -32.1875 30.5625 C-36.03305147 26.14011581 -37.5613011 21.10635988 -39.1875 15.5625 C-43.46341859 15.46440634 -47.42454092 15.81150566 -51.640625 16.515625 Z M-162.1875 389.5625 C-162.5175 390.2225 -162.8475 390.8825 -163.1875 391.5625 C-162.5275 391.5625 -161.8675 391.5625 -161.1875 391.5625 C-161.5175 390.9025 -161.8475 390.2425 -162.1875 389.5625 Z M-133.1875 450.5625 C-133.1875 450.8925 -133.1875 451.2225 -133.1875 451.5625 C-131.5375 451.5625 -129.8875 451.5625 -128.1875 451.5625 C-128.1875 451.2325 -128.1875 450.9025 -128.1875 450.5625 C-129.8375 450.5625 -131.4875 450.5625 -133.1875 450.5625 Z " fill="#030100" transform="translate(350.1875,-0.5625)"/>
<path d="M0 0 C0.20238281 1.23492187 0.40476563 2.46984375 0.61328125 3.7421875 C2.02765806 10.08642984 5.1015526 15.45397255 8.1875 21.125 C9.37480648 23.35288363 10.55971709 25.58204581 11.7421875 27.8125 C12.30905273 28.87984375 12.87591797 29.9471875 13.45996094 31.046875 C15.36023349 34.69077113 17.1207663 38.38073875 18.8125 42.125 C23.77610256 52.97906947 29.50113039 63.31813907 35.70776367 73.50463867 C38.72572284 78.47666272 41.50622018 83.55066965 44.19921875 88.70703125 C45.21653789 90.56733502 46.26375198 92.41396256 47.40307617 94.20214844 C51.36533396 100.45383492 53.81963594 106.55086264 55.9375 113.625 C56.27249512 114.70894043 56.60749023 115.79288086 56.95263672 116.90966797 C57.98436923 120.26851426 58.99478095 123.63313365 60 127 C60.31114746 128.03125 60.62229492 129.0625 60.94287109 130.125 C64.49251339 141.91535814 67.74994299 153.75831651 70.796875 165.68774414 C72.80514714 173.46241534 75.16356382 181.091967 77.6328125 188.73046875 C79.58451002 194.77430571 81.2870511 200.88502434 83 207 C83.99597355 210.52198318 84.99736725 214.04240746 86 217.5625 C86.25604004 218.46468262 86.51208008 219.36686523 86.77587891 220.29638672 C88.50941248 226.37539985 90.35130247 232.40393918 92.3359375 238.40625 C93.01197639 241.04677839 93.12779161 243.28688575 93 246 C92.24976563 246.268125 91.49953125 246.53625 90.7265625 246.8125 C71.09686244 254.32815342 61.36211879 270.78753462 50.83105469 287.89941406 C50.04569957 289.17504867 49.25641609 290.44827346 48.46313477 291.71899414 C47.3798364 293.45461603 46.30864673 295.19777887 45.23828125 296.94140625 C42.43358713 300.77399874 39.50829614 304.24126273 34.8046875 305.6640625 C31.13129478 305.58970232 29.35390162 305.32596202 26.625 302.8125 C23.90029234 298.09665982 22.25616327 294.52564429 23 289 C24.1217694 286.7564612 25.35827746 284.65111063 26.7109375 282.5390625 C28.06033847 279.88115149 28.62823881 277.33705115 29.29833984 274.44921875 C30.86017843 268.99745649 33.32987775 263.86149148 35.625 258.6875 C36.12128906 257.52798828 36.61757812 256.36847656 37.12890625 255.17382812 C41.574811 245.11115058 47.16307845 236.2668476 55.1875 228.6875 C61.76342836 222.64914182 61.76342836 222.64914182 66 215 C53.30288692 217.64523189 44.44473543 228.62129228 37.4375 238.9375 C32.42092012 247.14644889 28.79631185 256.17995831 25 265 C24.34 265 23.68 265 23 265 C18.64262664 256.88145866 14.29961702 248.75558386 9.98368835 240.6149292 C8.11606187 237.09358939 6.23376861 233.58120379 4.33203125 230.078125 C-2.66239958 216.97637751 -9.06695669 201.11951748 -4.75 186.25 C-4.46898437 185.42242187 -4.18796875 184.59484375 -3.8984375 183.7421875 C-2.94385942 180.94901859 -2.94385942 180.94901859 -2.2265625 177.8203125 C1.34062698 163.38792203 8.47675158 151.48505151 19 141 C19.57621094 140.36449219 20.15242188 139.72898438 20.74609375 139.07421875 C25.92128332 133.507144 31.96426707 129.10370228 38.09765625 124.6550293 C41.9752788 121.79083665 44.89731471 119.47963388 47 115 C45.49742213 115.23400803 43.99800315 115.48830065 42.5 115.75 C41.24703125 115.95882812 41.24703125 115.95882812 39.96875 116.171875 C32.90350764 118.14270576 27.52812721 121.8387186 22.125 126.6875 C21.52421631 127.21714355 20.92343262 127.74678711 20.30444336 128.29248047 C19.09594778 129.35971913 17.89038899 130.43029376 16.68798828 131.50439453 C15.18492176 132.83615408 13.65474315 134.13717099 12.12109375 135.43359375 C6.34080776 140.38434251 1.98827164 145.52273329 -2 152 C-2.53496094 152.84175781 -3.06992188 153.68351563 -3.62109375 154.55078125 C-8.04256153 161.99340157 -10.05099086 169.64174929 -12 178 C-12.41397995 179.64651118 -12.83000339 181.29251328 -13.25 182.9375 C-13.4975 183.948125 -13.745 184.95875 -14 186 C-17.93707729 184.65292241 -20.51093012 182.93775136 -23.5625 180.125 C-24.67818359 179.10792969 -24.67818359 179.10792969 -25.81640625 178.0703125 C-26.89728516 177.04550781 -26.89728516 177.04550781 -28 176 C-28.73605469 175.47664062 -29.47210938 174.95328125 -30.23046875 174.4140625 C-34.88343228 168.06631093 -33.03983781 156.42849064 -32 149 C-30.58285591 143.82800273 -28.03466563 139.36447537 -25.17626953 134.86181641 C-23.97554618 132.96129415 -22.85578301 131.02910924 -21.74609375 129.07421875 C-12.14940141 112.32389447 -2.43814535 101.18333924 15.16796875 92.859375 C18.90752556 91.06499664 22.50369166 89.24190764 26 87 C27.05175552 83.87311572 27.05175552 83.87311572 27 81 C5.6352429 86.12965703 -11.18841822 96.18021304 -23 115 C-30.90431592 127.40574303 -30.90431592 127.40574303 -36 141 C-36.66 141 -37.32 141 -38 141 C-38.61488281 139.89140625 -39.22976562 138.7828125 -39.86328125 137.640625 C-40.67953471 136.17699811 -41.49594944 134.71346116 -42.3125 133.25 C-42.71662109 132.52039063 -43.12074219 131.79078125 -43.53710938 131.0390625 C-45.51431836 127.50259114 -47.54192686 124.22716351 -50 121 C-50.70381157 119.01276732 -51.3711811 117.01222047 -52 115 C-52.32613281 114.38382812 -52.65226562 113.76765625 -52.98828125 113.1328125 C-55.23762686 108.39094878 -55.52232842 103.16763786 -56 98 C-56.08685059 97.13600586 -56.17370117 96.27201172 -56.26318359 95.38183594 C-57.527541 80.84048376 -55.60428121 68.33013777 -51 54.625 C-50.77124176 53.93184692 -50.54248352 53.23869385 -50.30679321 52.52453613 C-44.04346939 33.88158844 -22.84405539 0 0 0 Z " fill="#811D1D" transform="translate(79,61)"/>
<path d="M0 0 C-1.30629174 2.85675015 -2.38733567 4.40578023 -4.625 6.75 C-13.99713809 17.43469797 -19.61566249 32.78791459 -19.23046875 46.875 C-18.66775436 54.50502558 -17.5652034 61.77862909 -15 69 C-19.31059631 71.92805336 -23.63571417 73.26588598 -28.58984375 74.6640625 C-29.82306114 75.02037247 -29.82306114 75.02037247 -31.08119202 75.38388062 C-32.81414003 75.88301354 -34.54808834 76.37868503 -36.28295898 76.87109375 C-38.92736037 77.62212028 -41.56833298 78.38434249 -44.20898438 79.1484375 C-45.89824718 79.63347583 -47.58769444 80.11787231 -49.27734375 80.6015625 C-50.45416969 80.94062119 -50.45416969 80.94062119 -51.6547699 81.28652954 C-55.75306711 82.44558732 -59.77392087 83.39729513 -64 84 C-64 84.66 -64 85.32 -64 86 C-80.15020452 92.21804768 -95.91060668 97.71913502 -112.83740234 101.36499023 C-128.5327342 104.81123243 -143.81665749 109.78603339 -159 115 C-159.99 115.33 -160.98 115.66 -162 116 C-163.33819498 113.3773768 -164.6707151 110.75213401 -166 108.125 C-166.3815625 107.37863281 -166.763125 106.63226563 -167.15625 105.86328125 C-167.5171875 105.14785156 -167.878125 104.43242187 -168.25 103.6953125 C-168.75273437 102.7055542 -168.75273437 102.7055542 -169.265625 101.69580078 C-170 100 -170 100 -170 98 C-162.0673358 95.66014226 -154.15161763 94.04975717 -146 92.6875 C-127.0920601 89.40403253 -108.30505932 85.6613192 -90 79.82836914 C-84.26124244 78 -84.26124244 78 -81 78 C-81.33 77.34 -81.66 76.68 -82 76 C-87.3282915 75.84842934 -91.69368136 76.20561873 -96.875 77.625 C-98.29500587 77.99825772 -99.71562468 78.36918828 -101.13671875 78.73828125 C-102.30146729 79.04306396 -102.30146729 79.04306396 -103.48974609 79.35400391 C-119.4714809 83.46679036 -135.60673766 86.79054698 -151.8125 89.875 C-153.0409816 90.11073227 -153.0409816 90.11073227 -154.29428101 90.35122681 C-156.6391949 90.79957592 -158.98530166 91.2409522 -161.33203125 91.6796875 C-162.03304962 91.81375504 -162.73406799 91.94782257 -163.45632935 92.08595276 C-172.79320094 93.80453271 -172.79320094 93.80453271 -177 91 C-183.04848742 90.82049943 -189.11469607 92.64420154 -194.875 94.3125 C-195.65657471 94.53252686 -196.43814941 94.75255371 -197.2434082 94.97924805 C-201.64104641 96.23967707 -205.91856687 97.65924789 -210.1875 99.3125 C-214.39092706 100.9162691 -217.52176586 101.47640789 -222 101 C-222.66 100.67 -223.32 100.34 -224 100 C-224.495 101.485 -224.495 101.485 -225 103 C-226.76245117 103.78369141 -226.76245117 103.78369141 -229.04296875 104.3515625 C-229.86990234 104.56296875 -230.69683594 104.774375 -231.54882812 104.9921875 C-232.41958984 105.20101562 -233.29035156 105.40984375 -234.1875 105.625 C-235.03892578 105.8415625 -235.89035156 106.058125 -236.76757812 106.28125 C-241.15651783 107.38103071 -245.51953983 108.34003042 -250 109 C-250 109.66 -250 110.32 -250 111 C-249.17592651 110.86368164 -249.17592651 110.86368164 -248.33520508 110.72460938 C-245.82829271 110.31229696 -243.32042631 109.90609748 -240.8125 109.5 C-239.94818359 109.35691406 -239.08386719 109.21382813 -238.19335938 109.06640625 C-232.15371735 108.09450983 -227.01614667 107.646367 -221 109 C-219.75669922 109.10054687 -219.75669922 109.10054687 -218.48828125 109.203125 C-216 110 -216 110 -214.63671875 112.36328125 C-214.32347656 113.33652344 -214.01023437 114.30976563 -213.6875 115.3125 C-213.36136719 116.27800781 -213.03523438 117.24351562 -212.69921875 118.23828125 C-212 121 -212 121 -212 125 C-213.73636719 125.39832031 -213.73636719 125.39832031 -215.5078125 125.8046875 C-217.04690993 126.16130764 -218.58597048 126.51808691 -220.125 126.875 C-221.26582031 127.13603516 -221.26582031 127.13603516 -222.4296875 127.40234375 C-225.7386145 128.17252503 -228.92231359 128.9727807 -232.1328125 130.09765625 C-235.39402694 131.12400575 -238.34075801 131.37789819 -241.75 131.5625 C-246.03279844 131.6800499 -246.03279844 131.6800499 -250 133 C-263.17047373 134.12726698 -274.67915914 132.95023093 -285.7421875 125.0390625 C-291.09430846 120.20548613 -292.96395497 115.01162503 -293.5234375 107.875 C-294.04745221 95.88467533 -293.36217564 85.96125056 -284.92578125 76.73046875 C-279.87808185 72 -279.87808185 72 -276 72 C-275.73703125 71.39929688 -275.4740625 70.79859375 -275.203125 70.1796875 C-271.13533239 62.81011517 -261.65365512 59.82431898 -254.28173828 56.90527344 C-251.64905992 55.86076548 -249.02632154 54.79273261 -246.40234375 53.7265625 C-228.02172743 46.3280943 -228.02172743 46.3280943 -219.40234375 44.53515625 C-216.92310805 44.02694803 -216.92310805 44.02694803 -214.28637695 43.08789062 C-199.76013816 38.27926422 -184.98476095 36.50643712 -169.85595703 34.72094727 C-157.01864493 33.1893831 -144.71538505 30.95750455 -132.23365784 27.58067322 C-128.5127976 26.61337919 -124.75874172 25.80493931 -121 25 C-118.76600863 24.51748484 -116.53213559 24.03449936 -114.29882812 23.54882812 C-112.81248082 23.22559627 -111.32549974 22.90526465 -109.83789062 22.58789062 C-105.83993725 21.71301155 -101.93962143 20.70130061 -98.03125 19.484375 C-93.21134538 18.00565149 -88.39977131 17.04726331 -83.4375 16.1875 C-75.25906437 14.71824445 -67.24112483 12.85179329 -59.1875 10.8125 C-51.00116283 8.76189613 -43.55684643 7.56803228 -35.12109375 7.3359375 C-25.26263042 6.79445476 -14.8783655 3.97051304 -5.5390625 0.83984375 C-3 0 -3 0 0 0 Z " fill="#E0DBA8" transform="translate(465,319)"/>
<path d="M0 0 C1.47573702 1.78598005 2.46577371 3.4661053 3.48583984 5.54370117 C3.86554932 6.29828613 4.24525879 7.05287109 4.63647461 7.83032227 C5.24446899 9.04776123 5.24446899 9.04776123 5.86474609 10.28979492 C9.32332278 17.08045436 13.10383842 23.37492219 17.48974609 29.60229492 C22.5663034 36.86216088 26.17793065 44.31576215 29.39819336 52.56079102 C31.00107709 56.6280445 32.53738804 60.07229878 35.24365234 63.52807617 C37.42724609 66.72729492 37.42724609 66.72729492 37.0637207 69.42724609 C36.85368408 70.18626221 36.64364746 70.94527832 36.42724609 71.72729492 C35.86368408 71.83162842 35.30012207 71.93596191 34.71948242 72.04345703 C24.01264185 74.05052479 13.35876891 76.19294684 2.79443359 78.85229492 C2.05109268 79.03936508 1.30775177 79.22643524 0.54188538 79.41917419 C-0.98947242 79.80511185 -2.52079835 80.19117595 -4.05209351 80.57736206 C-21.114848 84.87334732 -38.18614927 88.08968922 -55.57395935 90.7504425 C-60.28497036 91.48458663 -64.94503786 92.38613233 -69.61181641 93.36010742 C-74.6752855 94.39895594 -79.41301762 95.09151239 -84.57275391 95.22729492 C-91.41177537 95.5354193 -97.70982495 96.63182524 -104.36572266 98.20385742 C-107.50857775 98.71682037 -109.53637742 98.58502839 -112.57275391 97.72729492 C-112.68490234 97.10467773 -112.79705078 96.48206055 -112.91259766 95.84057617 C-115.62088785 83.14878488 -120.89826046 70.0658913 -127.94775391 59.16479492 C-130.6421745 54.98734174 -131.61888646 51.06004003 -132.65087891 46.22729492 C-134.04668756 40.9279536 -136.14200921 35.92741264 -138.23657227 30.86987305 C-138.53700439 30.13188477 -138.83743652 29.39389648 -139.14697266 28.63354492 C-139.42114014 27.97676758 -139.69530762 27.31999023 -139.9777832 26.64331055 C-140.57275391 24.72729492 -140.57275391 24.72729492 -140.57275391 20.72729492 C-131.27168835 20.56475203 -131.27168835 20.56475203 -127.88525391 21.35229492 C-125.15100302 21.79568696 -123.3016529 21.10136845 -120.68988037 20.31771851 C-116.57249795 19.16946415 -112.36661222 18.41285219 -108.17431641 17.59057617 C-106.6565435 17.29011383 -106.6565435 17.29011383 -105.10810852 16.98358154 C-101.80540326 16.33179198 -98.50166825 15.68542569 -95.19775391 15.03979492 C-94.07047882 14.8183078 -92.94320374 14.59682068 -91.7817688 14.36862183 C-74.38110841 10.95444835 -56.95153906 7.79104664 -39.44433594 4.97265625 C-32.36819357 3.82061544 -25.50051729 2.57923276 -18.66821289 0.34521484 C-15.31478256 -0.64366226 -12.12538967 -0.90998685 -8.63525391 -1.14770508 C-7.36810547 -1.24825195 -6.10095703 -1.34879883 -4.79541016 -1.45239258 C-1.57275391 -1.27270508 -1.57275391 -1.27270508 0 0 Z " fill="#E8A8A8" transform="translate(322.57275390625,73.272705078125)"/>
<path d="M0 0 C1.22333253 2.44666506 1.04546823 3.79229374 0.8125 6.5 C0.72935547 7.69109375 0.72935547 7.69109375 0.64453125 8.90625 C0 11 0 11 -1.71142578 12.08862305 C-4.29448861 13.11727395 -6.49377901 13.42441531 -9.26171875 13.67578125 C-10.80375977 13.83022705 -10.80375977 13.83022705 -12.37695312 13.98779297 C-14.01567383 14.14852295 -14.01567383 14.14852295 -15.6875 14.3125 C-25.56134102 15.3890033 -34.61114993 17.18274077 -44.00830078 20.33837891 C-47.46271562 21.48589842 -50.94823093 22.52671698 -54.4375 23.5625 C-55.48321167 23.87550049 -55.48321167 23.87550049 -56.55004883 24.19482422 C-62.4653936 25.92770511 -68.44157845 27.21517838 -74.47143555 28.47851562 C-80.40507035 29.76481452 -85.95017667 31.69042826 -91.62890625 33.84375 C-96.13280389 35.38853992 -100.67431948 36.29195601 -105.35546875 37.12890625 C-108.46443122 37.8719916 -111.2218861 38.79750359 -114.19921875 39.9296875 C-119.92228371 42.06444677 -125.63980356 43.39030326 -131.625 44.5625 C-132.66970459 44.77302002 -133.71440918 44.98354004 -134.79077148 45.20043945 C-145.81630094 47.40249985 -156.81348766 49.56525232 -168 50.75 C-176.20210302 51.77086261 -183.99508262 54.0891195 -191.90625 56.43652344 C-197.73524428 58.15452334 -203.4646406 59.49936098 -209.45410156 60.51660156 C-213.25158461 61.23764265 -216.85031282 62.36711666 -220.5 63.625 C-221.25772705 63.88369873 -222.0154541 64.14239746 -222.79614258 64.40893555 C-244.25124082 71.88641259 -266.87385565 80.28217213 -277.90625 101.51953125 C-280.74060819 107.94745071 -280.29636209 114.57986349 -280.375 121.5 C-280.41238281 122.716875 -280.44976562 123.93375 -280.48828125 125.1875 C-280.57685033 134.39868482 -279.23127017 142.97965364 -273.11743164 150.23364258 C-264.55666432 158.61145288 -251.9286194 161.03858459 -240.328125 161.22265625 C-238.30163534 161.19049239 -236.27540695 161.13613092 -234.25 161.0625 C-233.156875 161.02455322 -232.06375 160.98660645 -230.9375 160.94750977 C-217.52199363 160.21713922 -204.63216218 156.94138415 -191.66015625 153.62670898 C-189 153 -189 153 -187 153 C-184.33442742 159.05022986 -182.48969295 164.38914524 -182 171 C-182.99 170.67 -183.98 170.34 -185 170 C-190.40312511 169.64949127 -194.85523286 170.6429515 -199.9375 172.3125 C-208.20944469 174.88656025 -216.45147003 176.63566988 -225 178 C-225.804375 178.13277344 -226.60875 178.26554688 -227.4375 178.40234375 C-245.74663508 180.93372038 -258.39880246 177.28440038 -274.02172852 168.10766602 C-276.03298877 166.98152906 -278.07796081 165.9877992 -280.16015625 165 C-283.70110315 163.2584728 -286.42743132 161.15691881 -289.3125 158.4375 C-290.13363281 157.67308594 -290.95476562 156.90867187 -291.80078125 156.12109375 C-293.55279816 154.43131545 -295.29000333 152.73213255 -297 151 C-296.649375 150.278125 -296.29875 149.55625 -295.9375 148.8125 C-294.396788 144.190364 -295.85934289 141.22790997 -297.8125 136.98046875 C-300.07777712 131.92355573 -302.00127229 126.775098 -303.875 121.5625 C-304.22232178 120.60746582 -304.56964355 119.65243164 -304.92749023 118.66845703 C-306.5656717 114.13131646 -308.15486428 109.58908589 -309.60546875 104.98828125 C-312.2069816 96.74286645 -314.83184729 89.76011986 -319.77734375 82.578125 C-321.37139234 79.21687238 -321.00602929 77.54196488 -320 74 C-316.41386957 65.80313045 -311.11975425 58.30720103 -306.20751953 50.85009766 C-304.99257238 48.9886198 -303.8051767 47.11169935 -302.62109375 45.23046875 C-293.67212853 31.1680677 -283.32323466 19.7399352 -269 11 C-268.34 11 -267.68 11 -267 11 C-263.43654711 17.88394307 -260.1617815 24.83576064 -257.0625 31.9375 C-250.61816882 48.4051809 -250.61816882 48.4051809 -239 61 C-236.13079138 61.13210475 -236.13079138 61.13210475 -234 60 C-234.47911111 54.96933334 -236.11516045 52.09461097 -239 48 C-239 47.34 -239 46.68 -239 46 C-236.625 46.25 -236.625 46.25 -234 47 C-232.8359375 49.046875 -232.8359375 49.046875 -232 51 C-228.5621915 50.02191424 -225.12480729 49.04234559 -221.6875 48.0625 C-220.71103516 47.78470703 -219.73457031 47.50691406 -218.72851562 47.22070312 C-217.79072266 46.95322266 -216.85292969 46.68574219 -215.88671875 46.41015625 C-214.59060669 46.04096069 -214.59060669 46.04096069 -213.26831055 45.66430664 C-211.50089822 45.14669509 -209.74714088 44.58238029 -208 44 C-209.41702513 44.14230808 -210.8336096 44.28900746 -212.25 44.4375 C-213.03890625 44.51871094 -213.8278125 44.59992188 -214.640625 44.68359375 C-216.82364639 44.97634993 -218.8773182 45.42064419 -221 46 C-220.75 44.125 -220.75 44.125 -220 42 C-217.36824434 40.43317896 -214.79266932 39.58326234 -211.82421875 38.88671875 C-211.00791992 38.69311768 -210.19162109 38.4995166 -209.35058594 38.30004883 C-208.0323584 37.99683716 -208.0323584 37.99683716 -206.6875 37.6875 C-205.76614258 37.47311279 -204.84478516 37.25872559 -203.89550781 37.0378418 C-200.93174219 36.35230255 -197.96591077 35.6761911 -195 35 C-194.02305176 34.77344727 -193.04610352 34.54689453 -192.03955078 34.31347656 C-181.9343659 31.97544707 -171.96180711 29.82294662 -161.6340332 28.8034668 C-144.74104227 27.01946124 -128.02263904 22.70049882 -111.62792969 18.37402344 C-99.39402653 15.18277479 -87.66519248 13.49649911 -75.03881836 12.8125 C-67.67507444 12.35957235 -60.87927268 11.24317413 -53.75 9.375 C-45.02062916 7.09240266 -36.9459766 6.57928782 -27.93652344 7.00927734 C-19.32351773 7.35323728 -12.28273411 5.08856127 -4.375 1.8125 C-3.53710938 1.46832031 -2.69921875 1.12414062 -1.8359375 0.76953125 C-1.23007812 0.51558594 -0.62421875 0.26164062 0 0 Z " fill="#801D1D" transform="translate(443,299)"/>
<path d="M0 0 C0.20238281 1.23492187 0.40476563 2.46984375 0.61328125 3.7421875 C2.02765806 10.08642984 5.1015526 15.45397255 8.1875 21.125 C9.37480648 23.35288363 10.55971709 25.58204581 11.7421875 27.8125 C12.30905273 28.87984375 12.87591797 29.9471875 13.45996094 31.046875 C15.36023349 34.69077113 17.1207663 38.38073875 18.8125 42.125 C23.90963994 53.27107997 29.80023599 63.8988165 36.20654297 74.34179688 C39 78.90506002 39 78.90506002 39 80 C37.25215171 80.36463732 35.50159498 80.7163078 33.75 81.0625 C32.77546875 81.25972656 31.8009375 81.45695312 30.796875 81.66015625 C28.07277333 81.99115743 26.59141199 81.68051786 24 81 C21.23533678 81.88864175 18.66950566 82.8789821 16 84 C15.08734375 84.34160156 14.1746875 84.68320313 13.234375 85.03515625 C-11.40947657 94.55077957 -24.16499294 113.90768775 -35 137 C-35.37364449 138.32260299 -35.72235443 139.65396812 -36 141 C-36.66 141 -37.32 141 -38 141 C-38.61488281 139.89140625 -39.22976562 138.7828125 -39.86328125 137.640625 C-40.67953471 136.17699811 -41.49594944 134.71346116 -42.3125 133.25 C-42.71662109 132.52039063 -43.12074219 131.79078125 -43.53710938 131.0390625 C-45.51431836 127.50259114 -47.54192686 124.22716351 -50 121 C-50.70381157 119.01276732 -51.3711811 117.01222047 -52 115 C-52.32613281 114.38382812 -52.65226562 113.76765625 -52.98828125 113.1328125 C-55.23762686 108.39094878 -55.52232842 103.16763786 -56 98 C-56.08685059 97.13600586 -56.17370117 96.27201172 -56.26318359 95.38183594 C-57.527541 80.84048376 -55.60428121 68.33013777 -51 54.625 C-50.77124176 53.93184692 -50.54248352 53.23869385 -50.30679321 52.52453613 C-44.04346939 33.88158844 -22.84405539 0 0 0 Z " fill="#801D1D" transform="translate(79,61)"/>
<path d="M0 0 C2.58871917 3.39107073 4.33928925 7.04193438 6.10546875 10.90625 C8.79271289 16.53989098 11.76601023 21.63986708 15.48046875 26.65625 C22.53048245 36.20555954 27.81477273 46.06108454 32.49291992 56.95043945 C34.65792341 61.91821174 37.04874951 66.40689435 40.2890625 70.77734375 C43.05899856 74.77410271 42.63932559 78.75775628 42.41796875 83.40625 C39.55959717 86.26462158 37.62363643 85.57371925 33.60546875 85.59375 C22.17535434 85.98061925 11.36426771 89.13806217 0.33277893 91.93077087 C-6.90263657 93.75518862 -14.1703892 95.42471209 -21.45703125 97.03125 C-22.11595367 97.17664215 -22.7748761 97.3220343 -23.45376587 97.47183228 C-37.29499004 100.50231453 -51.2284219 102.77360986 -65.23583984 104.88916016 C-68.46916096 105.38880806 -71.69321631 105.9285116 -74.91796875 106.48046875 C-79.75399594 107.29464044 -84.57880216 107.91540825 -89.45703125 108.40625 C-95.06494319 108.99399432 -100.63253906 109.6819175 -106.20703125 110.53125 C-111.08357819 111.24406313 -115.66065484 111.78481742 -120.58203125 111.40625 C-123.46913314 108.51914811 -123.8605281 105.00834086 -124.83203125 101.15625 C-127.96425971 89.31602409 -132.37271084 77.3805174 -139.10546875 67.07421875 C-140.74119538 64.11865979 -141.36541148 61.58841457 -142.01953125 58.28125 C-143.36586498 52.0657922 -145.29726082 46.3291392 -147.58203125 40.40625 C-148.53151072 37.93072694 -149.46892557 35.45304983 -150.39453125 32.96875 C-150.83410156 31.81503906 -151.27367187 30.66132812 -151.7265625 29.47265625 C-152.55714957 26.49543776 -152.70959835 25.22170895 -151.58203125 22.40625 C-150.45796875 22.42945312 -149.33390625 22.45265625 -148.17578125 22.4765625 C-128.12128183 22.450175 -108.19394524 16.15840723 -89.08203125 10.71875 C-79.46416351 7.99121533 -69.77142756 6.12546333 -59.875 4.734375 C-58.21479454 4.50034881 -56.55463916 4.26596714 -54.89453125 4.03125 C-54.05970215 3.91394531 -53.22487305 3.79664062 -52.36474609 3.67578125 C-46.07747042 2.74522128 -39.98796621 1.3490116 -33.83203125 -0.21875 C-6.96631026 -6.9979274 -6.96631026 -6.9979274 0 0 Z M-13.14453125 4.65625 C-14.34207031 4.70265625 -15.53960937 4.7490625 -16.7734375 4.796875 C-21.61403886 5.24117092 -26.20106174 6.53771608 -30.89343262 7.76295471 C-38.96273431 9.82838251 -47.13563326 11.2104412 -55.34133911 12.61373901 C-60.23660098 13.45199032 -65.12811782 14.3114917 -70.01953125 15.171875 C-71.0351564 15.35036484 -72.05078156 15.52885468 -73.09718323 15.7127533 C-84.96764454 17.81037029 -96.80699561 20.06874862 -108.64453125 22.34375 C-109.67329376 22.54092621 -110.70205627 22.73810242 -111.76199341 22.94125366 C-114.67238943 23.49949628 -117.58239276 24.05972617 -120.4921875 24.62109375 C-121.35678589 24.78740295 -122.22138428 24.95371216 -123.11218262 25.12506104 C-123.90926636 25.27964783 -124.7063501 25.43423462 -125.52758789 25.59350586 C-126.56309532 25.79380653 -126.56309532 25.79380653 -127.61952209 25.99815369 C-129.62244585 26.38890741 -129.62244585 26.38890741 -131.71043396 27.01954651 C-133.58203125 27.40625 -133.58203125 27.40625 -135.58203125 26.40625 C-137.2890586 26.33628986 -138.99871128 26.32184846 -140.70703125 26.34375 C-141.61710938 26.35277344 -142.5271875 26.36179687 -143.46484375 26.37109375 C-144.51285156 26.38849609 -144.51285156 26.38849609 -145.58203125 26.40625 C-145.02096334 32.1382411 -143.40547995 36.85560233 -141.20703125 42.15625 C-139.19661673 47.11872284 -137.32155895 51.91808701 -136.14453125 57.15625 C-134.87973881 62.27787866 -132.38921113 66.45331155 -129.70654297 70.93017578 C-123.738017 81.02590316 -120.01508967 91.94526429 -117.58203125 103.40625 C-113.22553883 104.63689758 -110.13893048 104.06324245 -105.76953125 103.03125 C-100.57927572 101.87997077 -95.66601099 101.21341366 -90.33203125 101.03125 C-80.54114441 100.64572382 -71.04466442 98.57386991 -61.44921875 96.70703125 C-57.33753804 95.91047118 -53.23466747 95.17450882 -49.08984375 94.57421875 C-33.08185654 92.23950728 -17.52656899 88.35221538 -1.85791016 84.37841797 C9.18015346 81.59260056 20.17130374 79.18351229 31.41796875 77.40625 C32.41927009 73.92414811 32.41927009 73.92414811 31.484375 70.6171875 C30.98808594 70.01132813 30.49179687 69.40546875 29.98046875 68.78125 C26.66663217 64.21044093 24.72130768 59.4932545 22.66796875 54.28125 C19.23726546 45.71411212 14.84836421 38.4768749 9.51953125 30.97998047 C3.68089105 22.63869618 -0.8557453 13.40298721 -5.58203125 4.40625 C-8.10641247 4.40625 -10.62325183 4.54057086 -13.14453125 4.65625 Z " fill="#080404" transform="translate(327.58203125,67.59375)"/>
<path d="M0 0 C1.77547408 2.26025569 3.08030461 4.25398773 4.4375 6.75 C4.82292969 7.4301416 5.20835938 8.1102832 5.60546875 8.81103516 C6.75764653 10.86335183 7.88010429 12.92993567 9 15 C9.62003906 16.10601562 10.24007812 17.21203125 10.87890625 18.3515625 C17.01116043 29.78858595 17.01116043 29.78858595 16 36 C13.875 38.5625 13.875 38.5625 11 40 C8.1875 40.25 8.1875 40.25 6 40 C6.66 38.35 7.32 36.7 8 35 C6.49742213 35.23400803 4.99800315 35.48830065 3.5 35.75 C2.6646875 35.88921875 1.829375 36.0284375 0.96875 36.171875 C-6.09649236 38.14270576 -11.47187279 41.8387186 -16.875 46.6875 C-17.47578369 47.21714355 -18.07656738 47.74678711 -18.69555664 48.29248047 C-19.90405222 49.35971913 -21.10961101 50.43029376 -22.31201172 51.50439453 C-23.81507824 52.83615408 -25.34525685 54.13717099 -26.87890625 55.43359375 C-32.65919224 60.38434251 -37.01172836 65.52273329 -41 72 C-41.53496094 72.84175781 -42.06992188 73.68351562 -42.62109375 74.55078125 C-47.04256153 81.99340157 -49.05099086 89.64174929 -51 98 C-51.41397995 99.64651118 -51.83000339 101.29251328 -52.25 102.9375 C-52.4975 103.948125 -52.745 104.95875 -53 106 C-56.93707729 104.65292241 -59.51093012 102.93775136 -62.5625 100.125 C-63.30628906 99.44695312 -64.05007812 98.76890625 -64.81640625 98.0703125 C-65.53699219 97.38710937 -66.25757813 96.70390625 -67 96 C-67.73605469 95.47664063 -68.47210938 94.95328125 -69.23046875 94.4140625 C-73.88343228 88.06631093 -72.03983781 76.42849064 -71 69 C-69.58285591 63.82800273 -67.03466563 59.36447537 -64.17626953 54.86181641 C-62.97554618 52.96129415 -61.85578301 51.02910924 -60.74609375 49.07421875 C-51.14940141 32.32389447 -41.43814535 21.18333924 -23.83203125 12.859375 C-15.6970133 9.18970539 -15.6970133 9.18970539 -11 2 C-7.36511672 0.30372114 -3.97033522 -0.71586347 0 0 Z " fill="#CA9608" transform="translate(118,141)"/>
<path d="M0 0 C0.68359375 1.765625 0.68359375 1.765625 1 4 C-0.21484375 5.921875 -0.21484375 5.921875 -1.9375 7.75 C-2.50339844 8.36359375 -3.06929687 8.9771875 -3.65234375 9.609375 C-4.09707031 10.06828125 -4.54179687 10.5271875 -5 11 C1.90097087 10.27314229 8.59519252 8.89732586 15.375 7.4375 C17.52826547 6.97608597 19.68189389 6.51636138 21.8359375 6.05859375 C22.78001465 5.85548584 23.7240918 5.65237793 24.69677734 5.44311523 C27 5 27 5 29 5 C28.37573242 6.88647461 28.37573242 6.88647461 27 9 C24.34887695 10.04907227 24.34887695 10.04907227 20.98828125 10.81640625 C19.76270508 11.10418945 18.53712891 11.39197266 17.27441406 11.68847656 C15.95390815 11.98041592 14.63326736 12.27174578 13.3125 12.5625 C11.97205748 12.86957787 10.63188749 13.17784784 9.29199219 13.48730469 C5.53324994 14.34924664 1.76795786 15.17920918 -2 16 C-2.84578613 16.18481934 -3.69157227 16.36963867 -4.56298828 16.56005859 C-10.0656219 17.74514267 -15.59031368 18.76695977 -21.140625 19.69921875 C-22.59384962 19.94472353 -24.04697376 20.19082383 -25.5 20.4375 C-26.21873291 20.55899414 -26.93746582 20.68048828 -27.67797852 20.80566406 C-32.27513833 21.61223818 -36.69853463 22.70121244 -41.1875 24 C-47.02045446 25.62836645 -52.67913855 26.54434804 -58.6875 27.25 C-68.95485022 28.48149253 -78.93117528 30.63813053 -89 32.9375 C-100.69430807 35.60635734 -112.36315202 38.10741158 -124.1875 40.14453125 C-127.28822693 40.6808632 -130.36374274 41.27547187 -133.4375 41.94921875 C-148.8882474 45.3189213 -164.54133464 47.15314354 -180.21733093 49.13339233 C-187.71105235 50.08226208 -195.19292807 51.11156986 -202.66943359 52.18774414 C-210.27372949 53.25422898 -210.27372949 53.25422898 -214 53 C-214.33 52.67 -214.66 52.34 -215 52 C-217.35313555 51.92728259 -219.70833668 51.91629132 -222.0625 51.9375 C-223.35285156 51.94652344 -224.64320313 51.95554687 -225.97265625 51.96484375 C-227.47119141 51.98224609 -227.47119141 51.98224609 -229 52 C-229 51.34 -229 50.68 -229 50 C-227.47632813 49.65388672 -227.47632813 49.65388672 -225.921875 49.30078125 C-219.46179729 47.78498679 -213.32563512 46.31752118 -207.3125 43.4375 C-201.21620957 40.74531268 -195.23398983 39.99169813 -188.68481445 39.15722656 C-170.61830727 36.84608133 -153.04345382 33.03189904 -135.61816406 27.77490234 C-128.25953623 25.59695711 -120.83024882 23.65831861 -113.42138672 21.65966797 C-111.3305682 21.090058 -109.24483547 20.50184038 -107.16015625 19.91015625 C-103.45526426 18.87245309 -99.73599039 17.91718396 -96 17 C-95.14728516 16.78424316 -94.29457031 16.56848633 -93.41601562 16.34619141 C-80.84828224 13.23885609 -69.56592556 11.85898729 -56.625 12.5 C-42.10562073 13.13102832 -30.66075377 9.09580495 -17.44775391 3.53515625 C-16.36912582 3.08505943 -16.36912582 3.08505943 -15.26870728 2.62586975 C-13.92207761 2.05661724 -12.58187544 1.47180502 -11.25009155 0.86863708 C-7.09346461 -0.92095923 -4.37419113 -1.15174194 0 0 Z " fill="#BDB775" transform="translate(413,360)"/>
<path d="M0 0 C2.24035761 6.50571135 4.20575887 13.06306554 6.0625 19.6875 C6.57294288 21.50426521 7.08462906 23.32068162 7.59765625 25.13671875 C7.83629395 25.98282715 8.07493164 26.82893555 8.32080078 27.70068359 C8.88090899 29.59683711 9.52178982 31.46893305 10.18359375 33.33203125 C11.01223505 36.03998345 11.16548609 38.18673646 11 41 C10.24976563 41.268125 9.49953125 41.53625 8.7265625 41.8125 C-10.90313756 49.32815342 -20.63788121 65.78753462 -31.16894531 82.89941406 C-31.95430043 84.17504867 -32.74358391 85.44827346 -33.53686523 86.71899414 C-34.6201636 88.45461603 -35.69135327 90.19777887 -36.76171875 91.94140625 C-39.56641287 95.77399874 -42.49170386 99.24126273 -47.1953125 100.6640625 C-50.86870522 100.58970232 -52.64609838 100.32596202 -55.375 97.8125 C-58.09970766 93.09665982 -59.74383673 89.52564429 -59 84 C-57.8782306 81.7564612 -56.64172254 79.65111063 -55.2890625 77.5390625 C-53.93966153 74.88115149 -53.37176119 72.33705115 -52.70166016 69.44921875 C-51.13982157 63.99745649 -48.67012225 58.86149148 -46.375 53.6875 C-45.87871094 52.52798828 -45.38242188 51.36847656 -44.87109375 50.17382812 C-40.425189 40.11115058 -34.83692155 31.2668476 -26.8125 23.6875 C-20.23034891 18.04096711 -20.23034891 18.04096711 -16.70703125 10.6015625 C-15.70904463 6.92941285 -13.81358306 5.86231632 -10.75 3.6875 C-9.79609375 2.99011719 -8.8421875 2.29273438 -7.859375 1.57421875 C-4.87836689 -0.06696468 -3.33447778 -0.35900399 0 0 Z " fill="#C99608" transform="translate(161,266)"/>
<path d="M0 0 C0.9384375 0.01353516 1.876875 0.02707031 2.84375 0.04101562 C5.10483885 0.07562413 7.36455925 0.12440439 9.625 0.1875 C9.625 0.8475 9.625 1.5075 9.625 2.1875 C8.67359131 2.31801758 7.72218262 2.44853516 6.74194336 2.58300781 C3.13413529 3.08052555 -0.47181659 3.59058128 -4.07739258 4.10400391 C-5.62347917 4.3224744 -7.17001943 4.53776345 -8.71704102 4.74951172 C-16.83556291 5.86293916 -24.90111688 7.1191239 -32.87109375 9.046875 C-34.07822021 9.33530273 -35.28534668 9.62373047 -36.52905273 9.92089844 C-39.57300742 10.917007 -39.57300742 10.917007 -40.65991211 13.72241211 C-40.89589111 14.53589111 -41.13187012 15.34937012 -41.375 16.1875 C-43.3203125 17.76953125 -43.3203125 17.76953125 -45.5 19 C-46.22445312 19.41894531 -46.94890625 19.83789062 -47.6953125 20.26953125 C-48.52675781 20.72392578 -48.52675781 20.72392578 -49.375 21.1875 C-43.07801541 20.49438928 -36.9425587 19.39283955 -30.75 18.0625 C-29.76104736 17.85020752 -28.77209473 17.63791504 -27.75317383 17.41918945 C-17.7098025 15.1771739 -7.98703671 12.07689841 1.7434082 8.75073242 C3.625 8.1875 3.625 8.1875 5.625 8.1875 C4.67932388 10.51531813 4.0441035 11.91129449 1.91796875 13.3125 C-24.6226589 24.34237123 -53.69014675 28.67390379 -81.82112122 33.65283203 C-91.85901497 35.43709012 -101.86955936 37.35530713 -111.875 39.3125 C-112.72809753 39.47897034 -113.58119507 39.64544067 -114.46014404 39.81695557 C-125.23108987 41.92291163 -135.96722776 44.14860025 -146.6875 46.5 C-174.28122772 52.54870855 -174.28122772 52.54870855 -184.375 52.1875 C-184.045 51.1975 -183.715 50.2075 -183.375 49.1875 C-177.79034286 47.39243163 -172.20318365 46.7001643 -166.375 46.1875 C-166.375 45.5275 -166.375 44.8675 -166.375 44.1875 C-166.705 43.8575 -167.035 43.5275 -167.375 43.1875 C-167.41563832 41.52132885 -167.417721 39.85361905 -167.375 38.1875 C-170.71042527 38.94945656 -174.04288796 39.72369352 -177.375 40.5 C-178.77685547 40.82000977 -178.77685547 40.82000977 -180.20703125 41.14648438 C-184.54050534 42.16166886 -188.72361856 43.23882502 -192.875 44.85546875 C-196.375 46.1875 -196.375 46.1875 -199.375 46.1875 C-198.375 43.1875 -198.375 43.1875 -195.76171875 41.828125 C-183.3441523 37.16006412 -170.60056753 34.07029568 -157.71044922 30.98803711 C-154.42615313 30.1997772 -151.14552952 29.39859338 -147.8671875 28.5859375 C-146.94276855 28.35696777 -146.01834961 28.12799805 -145.06591797 27.89208984 C-142.27152818 27.16040694 -139.51305645 26.34163093 -136.75 25.5 C-131.55798312 24.04895598 -126.7348083 23.87358498 -121.375 24.1875 C-122.375 26.1875 -122.375 26.1875 -124.69165039 26.96533203 C-126.19199829 27.32667236 -126.19199829 27.32667236 -127.72265625 27.6953125 C-128.80224609 27.95957031 -129.88183594 28.22382813 -130.99414062 28.49609375 C-132.13044922 28.76550781 -133.26675781 29.03492188 -134.4375 29.3125 C-136.14776367 29.72822266 -136.14776367 29.72822266 -137.89257812 30.15234375 C-140.718359 30.8380981 -143.54577656 31.51611602 -146.375 32.1875 C-139.8868759 31.5373742 -133.53288385 30.57293019 -127.125 29.375 C-125.71275146 29.11541504 -125.71275146 29.11541504 -124.27197266 28.85058594 C-119.31472758 27.93547833 -114.36276252 26.99536395 -109.4140625 26.03515625 C-107.98755371 25.75925659 -107.98755371 25.75925659 -106.53222656 25.4777832 C-104.71314773 25.12453457 -102.8947516 24.7677471 -101.07714844 24.40698242 C-100.25504883 24.24689697 -99.43294922 24.08681152 -98.5859375 23.921875 C-97.86712402 23.77975586 -97.14831055 23.63763672 -96.40771484 23.49121094 C-94.375 23.1875 -94.375 23.1875 -90.375 23.1875 C-90.375 22.1975 -90.375 21.2075 -90.375 20.1875 C-78.74107826 16.30756578 -66.84095879 13.44848849 -54.9465332 10.49633789 C-51.44825259 9.62767001 -47.95158355 8.75273584 -44.45507812 7.87695312 C-38.10090945 6.28937287 -31.74015403 4.7303859 -25.375 3.1875 C-24.61231812 3.00023346 -23.84963623 2.81296692 -23.06384277 2.62002563 C-15.25621211 0.71845202 -8.03329456 -0.22835167 0 0 Z " fill="#BBB573" transform="translate(408.375,339.8125)"/>
<path d="M0 0 C15.7488538 33.75343861 15.7488538 33.75343861 14 39 C13.01 39.66 12.02 40.32 11 41 C11.10613836 43.45224694 11.10613836 43.45224694 12 46 C12.804375 46.26167969 13.60875 46.52335937 14.4375 46.79296875 C17 48 17 48 18.14453125 50.65234375 C19.61278796 57.87341917 20.39876864 64.63016472 20 72 C16.54427651 70.56326595 14.80426347 68.84676035 12.5625 65.875 C11.96179688 65.07964844 11.36109375 64.28429687 10.7421875 63.46484375 C8.67705531 60.54309843 6.81692054 57.53952299 5.04296875 54.43359375 C4.69878906 53.96050781 4.35460937 53.48742187 4 53 C3.34 53 2.68 53 2 53 C1.98582031 53.556875 1.97164063 54.11375 1.95703125 54.6875 C1.39492415 63.68121356 -2.76761575 69.29183362 -9.16015625 75.390625 C-16.71601942 82 -16.71601942 82 -20 82 C-19.855625 81.00742187 -19.71125 80.01484375 -19.5625 78.9921875 C-16.26429499 55.36872087 -19.9497404 30.57143725 -33 10 C-33 9.34 -33 8.68 -33 8 C-22.41157798 3.92876783 -11.48687308 -0.14940101 0 0 Z " fill="#9B6025" transform="translate(287,418)"/>
<path d="M0 0 C3.88134623 1.31172013 6.14843178 2.82950883 8.9375 5.8125 C11.3245171 8.30330045 13.68316169 10.65376415 16.375 12.8125 C19.56180104 15.46816753 20.85268853 17.06088938 21.5 21.1875 C20.68780374 27.38049651 17.29083948 31.20808568 12.453125 34.9921875 C7.93862474 37.61713449 3.30912239 39.26489528 -1.625 40.9375 C-2.63973389 41.28594971 -3.65446777 41.63439941 -4.69995117 41.9934082 C-12.78547301 44.71295195 -20.92898266 46.89343646 -29.2265625 48.8515625 C-33.91909478 49.9593891 -38.55139708 51.24068976 -43.1875 52.5625 C-48.04662602 53.94369712 -52.89280479 55.23043962 -57.8293457 56.31396484 C-70.34844214 59.0665324 -82.49307373 63.11330583 -94.70605469 66.96630859 C-105.44953232 70.33777941 -116.2592418 73.36864563 -127.16040039 76.18530273 C-133.0455745 77.7160224 -138.84011924 79.43509575 -144.62890625 81.30078125 C-147 82 -147 82 -149 82 C-149.53603819 80.60993485 -150.05317473 79.21257351 -150.5625 77.8125 C-150.85253906 77.03519531 -151.14257812 76.25789063 -151.44140625 75.45703125 C-152.08496851 72.6262574 -151.63830066 70.79995786 -151 68 C-150.40823975 67.97856934 -149.81647949 67.95713867 -149.20678711 67.93505859 C-140.01132846 67.36715173 -131.41963086 64.99562627 -122.5625 62.625 C-121.02821159 62.22053087 -119.49370715 61.8168803 -117.95898438 61.4140625 C-115.70445138 60.82209641 -113.45029357 60.22892251 -111.19741821 59.63067627 C-107.19260256 58.56779796 -103.18176351 57.55243221 -99.15234375 56.5859375 C-82.81095376 52.51176742 -66.91997402 47.00216107 -51.0625 41.375 C-47.3670294 40.06705074 -43.67050452 38.76214961 -39.97265625 37.4609375 C-39.09330917 37.15145172 -38.2139621 36.84196594 -37.30796814 36.52310181 C-31.54076357 34.50590951 -25.74280529 32.64501827 -19.88989258 30.89013672 C-14.97422448 29.37602623 -10.14486213 27.6340467 -5.3125 25.875 C-4.33861328 25.52824219 -3.36472656 25.18148438 -2.36132812 24.82421875 C-1.43384766 24.48777344 -0.50636719 24.15132813 0.44921875 23.8046875 C1.27768311 23.50546387 2.10614746 23.20624023 2.9597168 22.89794922 C5.16875938 22.07281416 5.16875938 22.07281416 7 20 C6.89219143 13.42367717 5.7286263 11.61041064 1 7 C0.1875 3.1875 0.1875 3.1875 0 0 Z " fill="#801D1D" transform="translate(458,371)"/>
<path d="M0 0 C4.28265216 3.54032579 5.83020356 7.74579032 7.875 12.75 C10.02920209 17.87272312 12.01668959 22.51728646 15.625 26.8125 C18 30 18 30 17.8125 32.5625 C17.214375 33.366875 16.61625 34.17125 16 35 C15.63132812 35.55558594 15.26265625 36.11117187 14.8828125 36.68359375 C8.71736341 44.43206355 -2.43685799 46.22254227 -11.7734375 47.52734375 C-14.52117408 47.76556794 -17.24317734 47.94157023 -20 48 C-19.96987579 37.11009774 -18.09709232 29.73772861 -13 20 C-12.32130859 18.29650391 -12.32130859 18.29650391 -11.62890625 16.55859375 C-9.79950139 12.56198025 -7.55142635 9.46564529 -4.8125 6.0625 C-4.11737305 5.17981445 -4.11737305 5.17981445 -3.40820312 4.27929688 C-2.2790017 2.84742291 -1.14047105 1.42291416 0 0 Z " fill="#FAC20A" transform="translate(471,259)"/>
<path d="M0 0 C2.65203789 2.80533487 3.63226656 5.5108308 4.5703125 9.2109375 C4.82683594 10.20867188 5.08335937 11.20640625 5.34765625 12.234375 C5.60417969 13.27078125 5.86070312 14.3071875 6.125 15.375 C6.52138672 16.91800781 6.52138672 16.91800781 6.92578125 18.4921875 C8.14779589 23.30580862 9.30625397 28.07609524 10 33 C-6.07618794 31.87703099 -23.72909999 26.47177458 -34.9375 14 C-36.99554854 11.00647485 -37.93376622 8.44254852 -39 5 C-38.2793335 4.91959473 -37.55866699 4.83918945 -36.81616211 4.75634766 C-33.52255094 4.38536325 -30.23005246 4.00526147 -26.9375 3.625 C-25.80376953 3.49867187 -24.67003906 3.37234375 -23.50195312 3.2421875 C-15.84002374 2.34866804 -7.60576717 -0.87758852 0 0 Z " fill="#F9C10B" transform="translate(355,9)"/>
<path d="M0 0 C3.88134623 1.31172013 6.14843178 2.82950883 8.9375 5.8125 C11.3245171 8.30330045 13.68316169 10.65376415 16.375 12.8125 C19.56180104 15.46816753 20.85268853 17.06088938 21.5 21.1875 C20.82044244 26.36912637 18.55790762 29.27466143 15 33 C12.25 35.0625 12.25 35.0625 10 36 C9.34 35.67 8.68 35.34 8 35 C8.33 33.68 8.66 32.36 9 31 C2.15482651 32.12086806 -3.79083731 33.97031618 -10.125 36.75 C-29.81866996 44.95336796 -55.57251971 52.54911107 -77 52 C-73.14585999 48.50197429 -68.49218293 47.21569898 -63.66015625 45.56640625 C-62.28324867 45.08759254 -62.28324867 45.08759254 -60.87852478 44.59910583 C-58.9337657 43.92429427 -56.98781362 43.25291247 -55.04077148 42.5847168 C-52.10209487 41.57608994 -49.16698859 40.55762416 -46.23242188 39.53710938 C-37.48043693 36.50386186 -28.72510619 33.55224357 -19.85473633 30.88354492 C-14.95267223 29.36634917 -10.13356149 27.62993311 -5.3125 25.875 C-4.33861328 25.52824219 -3.36472656 25.18148438 -2.36132812 24.82421875 C-1.43384766 24.48777344 -0.50636719 24.15132813 0.44921875 23.8046875 C1.27768311 23.50546387 2.10614746 23.20624023 2.9597168 22.89794922 C5.16875938 22.07281416 5.16875938 22.07281416 7 20 C6.89219143 13.42367717 5.7286263 11.61041064 1 7 C0.1875 3.1875 0.1875 3.1875 0 0 Z " fill="#B33535" transform="translate(458,371)"/>
<path d="M0 0 C-0.94915283 0.2333606 -0.94915283 0.2333606 -1.91748047 0.47143555 C-13.53644275 3.33467232 -25.13799092 6.21978301 -36.64013672 9.52612305 C-41.80388076 11 -41.80388076 11 -44 11 C-44 11.99 -44 12.98 -44 14 C-54.11426026 16.22027879 -64.25433607 18.27256664 -74.42480469 20.21704102 C-76.06962618 20.53286117 -77.71382953 20.85191653 -79.35742188 21.17407227 C-81.77601469 21.64799218 -84.19630849 22.11213711 -86.6171875 22.57421875 C-87.34130829 22.71792404 -88.06542908 22.86162933 -88.81149292 23.00968933 C-93.61580735 23.91156432 -98.11108209 24.12533046 -103 24 C-99.97850231 21.98566821 -97.944402 21.34096557 -94.45703125 20.4921875 C-93.38388672 20.22792969 -92.31074219 19.96367187 -91.20507812 19.69140625 C-90.08552734 19.42199219 -88.96597656 19.15257812 -87.8125 18.875 C-86.68134766 18.59785156 -85.55019531 18.32070313 -84.38476562 18.03515625 C-81.59109015 17.35147196 -78.79618941 16.67331506 -76 16 C-77.43218585 15.97284956 -78.86452159 15.95353594 -80.296875 15.9375 C-81.09448242 15.92589844 -81.89208984 15.91429687 -82.71386719 15.90234375 C-85.70746387 16.03022058 -88.19843608 16.98124948 -91 18 C-93.875 18.125 -93.875 18.125 -96 18 C-96.625 16.125 -96.625 16.125 -97 14 C-94.23776722 11.23776722 -91.79293383 11.42143709 -88 11 C-88 10.34 -88 9.68 -88 9 C-89.32 8.67 -90.64 8.34 -92 8 C-91.45844269 7.92927277 -90.91688538 7.85854553 -90.35891724 7.78567505 C-84.67982032 7.04330701 -79.0013636 6.29617871 -73.32324219 5.54638672 C-71.20914227 5.26784195 -69.09488648 4.99047741 -66.98046875 4.71435547 C-63.92665706 4.31534328 -60.87344669 3.91197221 -57.8203125 3.5078125 C-56.88760529 3.3868924 -55.95489807 3.26597229 -54.993927 3.14138794 C-49.68590184 2.43394817 -44.46807839 1.54224123 -39.23548889 0.40013123 C-35.58730237 -0.25285942 -32.00430324 -0.16932205 -28.3125 -0.0625 C-21.16134763 0.05279255 -14.16180689 -0.2504288 -7.0390625 -0.87890625 C-4.32806076 -0.98692817 -2.56339334 -0.71881505 0 0 Z " fill="#BBB574" transform="translate(362,349)"/>
<path d="M0 0 C-0.94567612 2.32781813 -1.5808965 3.72379449 -3.70703125 5.125 C-30.2476589 16.15487123 -59.31514675 20.48640379 -87.44612122 25.46533203 C-97.48401497 27.24959012 -107.49455936 29.16780713 -117.5 31.125 C-118.35309753 31.29147034 -119.20619507 31.45794067 -120.08514404 31.62945557 C-130.85608987 33.73541163 -141.59222776 35.96110025 -152.3125 38.3125 C-179.90622772 44.36120855 -179.90622772 44.36120855 -190 44 C-189.67 43.01 -189.34 42.02 -189 41 C-183.34736114 39.20661794 -177.61335582 38.46313788 -171.75 37.6875 C-164.83345589 36.71332083 -158.12820698 35.40489909 -151.375 33.625 C-139.36316951 30.47615328 -127.20467655 28.26241315 -115 26 C-94.37215918 22.1620547 -73.77046954 18.28686705 -53.28662109 13.72949219 C-51.07195618 13.23792936 -48.85609953 12.75170895 -46.63916016 12.27050781 C-32.08503236 9.11124344 -17.930421 5.36902689 -3.83398438 0.54736328 C-2 0 -2 0 0 0 Z " fill="#10100B" transform="translate(414,348)"/>
<path d="M0 0 C0.75 2.1875 0.75 2.1875 1 5 C-1.41965524 9.7240888 -4.9006091 11.10460737 -9.60375977 12.91821289 C-17.34074876 15.3826366 -25.36627526 16.81105448 -33.3125 18.4375 C-37.10764767 19.2276003 -40.90150198 20.02381973 -44.6953125 20.8203125 C-45.6111058 21.01174332 -46.52689911 21.20317413 -47.47044373 21.40040588 C-53.90734246 22.75154035 -60.30643137 24.21723284 -66.6875 25.8125 C-74.7351911 27.81099317 -82.8351061 29.25982091 -91.01416016 30.61352539 C-96.98627057 31.61059473 -102.77769545 32.79846956 -108.59765625 34.484375 C-111.44413125 35.09532573 -114.09742218 35.0842548 -117 35 C-117.33 35.99 -117.66 36.98 -118 38 C-120 35 -120 35 -120 33 C-112.0673358 30.66014226 -104.15161763 29.04975717 -96 27.6875 C-77.0920601 24.40403253 -58.30505932 20.6613192 -40 14.82836914 C-34.26124244 13 -34.26124244 13 -31 13 C-31.495 12.01 -31.495 12.01 -32 11 C-37.87987044 10.78198233 -42.73448209 11.45923834 -48.375 13.0625 C-55.74302326 15.12848837 -55.74302326 15.12848837 -58 14 C-48.71796474 9.72883211 -38.87101498 7.46477935 -29 5 C-28.23655273 4.80873535 -27.47310547 4.6174707 -26.68652344 4.42041016 C-23.29772495 3.57209531 -19.90801154 2.7284338 -16.515625 1.89453125 C-14.08218376 1.27535564 -11.66408895 0.59378253 -9.26171875 -0.13671875 C-5.73251865 -1.07079446 -3.51335995 -0.85691706 0 0 Z " fill="#BCB674" transform="translate(415,384)"/>
<path d="M0 0 C-3.70118055 5.55177083 -11.37621588 5.91995715 -17.63671875 7.2109375 C-19.65280214 7.60331842 -21.66977224 7.99116449 -23.6875 8.375 C-32.04603866 10.0018047 -40.37529588 11.71367728 -48.6875 13.5625 C-57.08690981 15.41984036 -65.50528223 17.06300252 -73.97729492 18.55322266 C-78.1637954 19.29199502 -82.33530619 20.05077226 -86.48828125 20.9609375 C-101.96057809 24.33212888 -117.63835866 26.16398846 -133.33612061 28.1431427 C-140.23565845 29.01767513 -147.11915323 29.98831598 -154 31 C-154 30.34 -154 29.68 -154 29 C-140.54718939 26.34898993 -127.08727742 23.8199862 -113.5625 21.5625 C-102.89195037 19.77196724 -92.36574371 17.59113228 -81.82373047 15.16259766 C-73.49444765 13.26718718 -65.15002685 11.79924871 -56.71459961 10.46850586 C-49.07872614 9.24039388 -41.57672513 7.63716369 -34.05053711 5.86401367 C-26.78725107 4.15473229 -19.49554518 2.65784343 -12.16699219 1.25585938 C-2.22895887 -0.66868766 -2.22895887 -0.66868766 0 0 Z " fill="#13120D" transform="translate(366,381)"/>
<path d="M0 0 C4.20656758 0 6.48634999 1.10626128 9.4375 3.9375 C15.226312 10.19808742 26 22.15495933 26 31 C25.01 31 24.02 31 23 31 C21.8684082 29.56640625 21.8684082 29.56640625 20.80078125 27.5625 C20.39988281 26.83546875 19.99898438 26.1084375 19.5859375 25.359375 C19.16570312 24.58078125 18.74546875 23.8021875 18.3125 23 C12.40143723 12.38709062 12.40143723 12.38709062 3 5 C6.86068266 17.56700191 11.09105088 29.84649297 16.5625 41.8125 C16.99667236 42.77027344 17.43084473 43.72804687 17.87817383 44.71484375 C23.11807362 55.98226748 23.11807362 55.98226748 30.70922852 65.68676758 C32 67 32 67 32 69 C35.58752742 70.86551426 39.27812193 72.42535928 43 74 C41.73849841 67.7223722 40.03143007 61.73493307 37.9375 55.6875 C37.40361106 54.12936368 36.8710123 52.57078455 36.33984375 51.01171875 C36.10644287 50.33584717 35.87304199 49.65997559 35.63256836 48.96362305 C34.99730956 46.99164833 34.47948709 45.01497069 34 43 C38.41253318 46.60935298 40.07889286 51.11496798 42.1875 56.25 C42.54263672 57.07113281 42.89777344 57.89226562 43.26367188 58.73828125 C45.40734006 63.87169539 46.78675452 68.41906105 47 74 C46.34 74.99 45.68 75.98 45 77 C41.46702982 77.56206344 39.42944571 77.200408 36.1875 75.6875 C21.20848486 64.42390637 14.24727055 43.5632262 7 27 C6.38944998 25.61973545 5.77878207 24.23952305 5.16796875 22.859375 C-1.57134905 7.47528929 -1.57134905 7.47528929 -1 1 C-0.67 0.67 -0.34 0.34 0 0 Z " fill="#130505" transform="translate(392,167)"/>
<path d="M0 0 C-2.73618327 2.73618327 -5.77975433 3.05182909 -9.4375 3.875 C-14.45904905 5.05177614 -19.25007617 6.35988368 -24.0625 8.25 C-28.32180513 9.88572712 -31.46013285 10.48296459 -36 10 C-36.66 9.67 -37.32 9.34 -38 9 C-38.33 9.99 -38.66 10.98 -39 12 C-40.71484375 12.79956055 -40.71484375 12.79956055 -42.9375 13.38671875 C-43.75089844 13.60263672 -44.56429687 13.81855469 -45.40234375 14.04101562 C-46.25957031 14.25435547 -47.11679688 14.46769531 -48 14.6875 C-48.82628906 14.91244141 -49.65257812 15.13738281 -50.50390625 15.36914062 C-54.58214897 16.41901688 -58.27345325 17.11567085 -62.4921875 16.98828125 C-67.64362003 16.84166356 -72.19606001 18.11209452 -77.125 19.5 C-82.91149457 21.11463272 -87.97180295 22.32673155 -94 22 C-94 21.34 -94 20.68 -94 20 C-89.27279119 18.76938213 -84.5445635 17.54277958 -79.81542969 16.31958008 C-78.21326927 15.90461476 -76.61137196 15.48863196 -75.00976562 15.0715332 C-66.03276342 12.7344753 -57.067461 10.54950101 -47.98486328 8.65942383 C-44.15146202 7.81253876 -40.4879412 6.69983298 -36.75 5.5 C-24.82760346 1.84228987 -12.51004444 -0.60532473 0 0 Z " fill="#B4AE70" transform="translate(279,410)"/>
<path d="M0 0 C-0.56152344 1.87158203 -0.56152344 1.87158203 -2 4 C-4.40466041 4.90490162 -6.52661104 5.52190849 -9.015625 6.0546875 C-9.72487122 6.2185495 -10.43411743 6.3824115 -11.16485596 6.55123901 C-19.30291922 8.38359975 -27.52136377 9.77232299 -35.75 11.125 C-37.26181637 11.37832436 -38.77353554 11.63222947 -40.28515625 11.88671875 C-45.72078406 12.79951521 -51.15818183 13.70086074 -56.59863281 14.58447266 C-57.65920898 14.75769043 -58.71978516 14.9309082 -59.8125 15.109375 C-60.72128906 15.25600586 -61.63007813 15.40263672 -62.56640625 15.55371094 C-65.79938108 16.14659597 -68.86962912 17.0039729 -72 18 C-71.75 16.125 -71.75 16.125 -71 14 C-68.36824434 12.43317896 -65.79266932 11.58326234 -62.82421875 10.88671875 C-62.00791992 10.69311768 -61.19162109 10.4995166 -60.35058594 10.30004883 C-59.47176758 10.09790771 -58.59294922 9.8957666 -57.6875 9.6875 C-56.76614258 9.47311279 -55.84478516 9.25872559 -54.89550781 9.0378418 C-51.93174219 8.35230255 -48.96591077 7.6761911 -46 7 C-45.02305176 6.77344727 -44.04610352 6.54689453 -43.03955078 6.31347656 C-28.88104505 3.03763308 -14.62118291 -0.24781666 0 0 Z " fill="#0A0202" transform="translate(294,327)"/>
<path d="M0 0 C-1.61300658 3.22601315 -4.47290102 3.70013011 -7.75 4.93359375 C-21.96023948 9.59632858 -36.91145374 11.25708046 -51.67553711 13.24975586 C-58.86628031 14.22564524 -65.92886525 15.3415249 -73 17 C-76.5625 17.125 -76.5625 17.125 -79 17 C-79 16.34 -79 15.68 -79 15 C-70.21623764 11.3338958 -61.33436364 9.56078449 -52 8 C-48.20755078 7.35870113 -44.41607631 6.71186258 -40.625 6.0625 C-39.15643555 5.8135498 -39.15643555 5.8135498 -37.65820312 5.55957031 C-31.46515613 4.49045915 -25.36262145 3.20498161 -19.25 1.75 C-12.75979089 0.21363908 -6.6997283 -0.53125599 0 0 Z " fill="#080202" transform="translate(411,306)"/>
<path d="M0 0 C0.9384375 0.01353516 1.876875 0.02707031 2.84375 0.04101562 C5.10483885 0.07562413 7.36455925 0.12440439 9.625 0.1875 C9.625 0.8475 9.625 1.5075 9.625 2.1875 C8.72072266 2.30754395 7.81644531 2.42758789 6.88476562 2.55126953 C-10.83483886 4.9379826 -28.09510629 7.73792662 -45.37988281 12.40820312 C-52.03654332 14.1401937 -58.76250752 15.59580631 -65.47460938 17.09545898 C-71.15477324 18.38178018 -76.71626577 19.82110494 -82.25976562 21.61181641 C-85.00622045 22.35929338 -87.54789969 22.41069213 -90.375 22.1875 C-90.375 21.5275 -90.375 20.8675 -90.375 20.1875 C-78.74107826 16.30756578 -66.84095879 13.44848849 -54.9465332 10.49633789 C-51.44825259 9.62767001 -47.95158355 8.75273584 -44.45507812 7.87695312 C-38.10090945 6.28937287 -31.74015403 4.7303859 -25.375 3.1875 C-24.61231812 3.00023346 -23.84963623 2.81296692 -23.06384277 2.62002563 C-15.25621211 0.71845202 -8.03329456 -0.22835167 0 0 Z " fill="#10100B" transform="translate(408.375,339.8125)"/>
<path d="M0 0 C1.05058594 0.01804687 2.10117187 0.03609375 3.18359375 0.0546875 C3.96863281 0.07789063 4.75367188 0.10109375 5.5625 0.125 C6.0575 1.61 6.0575 1.61 6.5625 3.125 C-7.14311473 6.45148844 -20.86478298 9.51449869 -34.75 12 C-35.94077148 12.21487061 -37.13154297 12.42974121 -38.35839844 12.65112305 C-48.33452809 14.3957207 -48.33452809 14.3957207 -52.4375 14.125 C-54.25 12.625 -54.25 12.625 -55.4375 11.125 C-50.35149293 9.19923033 -45.41507145 8.45529811 -40.0625 7.75 C-29.76551625 6.30416145 -19.82299636 4.12925822 -9.890625 1.01171875 C-6.42790597 0.12253637 -3.56163364 -0.08003671 0 0 Z " fill="#B8B271" transform="translate(343.4375,397.875)"/>
<path d="M0 0 C-1 2 -1 2 -2.76123047 2.63500977 C-3.9274292 2.91042603 -3.9274292 2.91042603 -5.1171875 3.19140625 C-6.01703369 3.40933838 -6.91687988 3.62727051 -7.84399414 3.85180664 C-9.34434204 4.20359985 -9.34434204 4.20359985 -10.875 4.5625 C-13.0588982 5.09249707 -15.24247212 5.62383149 -17.42578125 6.15625 C-18.62799316 6.44757813 -19.83020508 6.73890625 -21.06884766 7.0390625 C-27.65084163 8.64188928 -34.2172135 10.30655516 -40.78106689 11.98190308 C-43.00311828 12.54738808 -45.22683088 13.10595548 -47.45068359 13.66430664 C-55.78393666 15.77919512 -63.90998887 18.20696083 -72.02124023 21.06225586 C-75 22 -75 22 -78 22 C-77 19 -77 19 -74.38671875 17.640625 C-61.9691523 12.97256412 -49.22556753 9.88279568 -36.33544922 6.80053711 C-33.05115313 6.0122772 -29.77052952 5.21109338 -26.4921875 4.3984375 C-25.56776855 4.16946777 -24.64334961 3.94049805 -23.69091797 3.70458984 C-20.89652818 2.97290694 -18.13805645 2.15413093 -15.375 1.3125 C-10.18298312 -0.13854402 -5.3598083 -0.31391502 0 0 Z " fill="#10100C" transform="translate(287,364)"/>
<path d="M0 0 C-0.62426758 1.88647461 -0.62426758 1.88647461 -2 4 C-4.65112305 5.04907227 -4.65112305 5.04907227 -8.01171875 5.81640625 C-9.23777832 6.10427002 -10.46383789 6.39213379 -11.72705078 6.6887207 C-13.04707541 6.98054696 -14.36722765 7.27179654 -15.6875 7.5625 C-17.02355319 7.86882387 -18.35932882 8.1763608 -19.69482422 8.48510742 C-28.42950673 10.48969979 -37.18416086 12.38679232 -46 14 C-47.56234375 14.30550781 -47.56234375 14.30550781 -49.15625 14.6171875 C-53.5237229 15.45620203 -57.53909349 16.10318823 -62 16 C-62 14.68 -62 13.36 -62 12 C-60.86123413 11.80422363 -60.86123413 11.80422363 -59.69946289 11.60449219 C-46.64937869 9.34933653 -33.65003572 7.08687112 -20.7890625 3.9140625 C-4.56410256 0 -4.56410256 0 0 0 Z " fill="#14130E" transform="translate(442,365)"/>
<path d="M0 0 C-0.33 0.66 -0.66 1.32 -1 2 C-1.99 2 -2.98 2 -4 2 C-4 2.66 -4 3.32 -4 4 C-3.45061768 3.90912109 -2.90123535 3.81824219 -2.33520508 3.72460938 C0.17170729 3.31229696 2.67957369 2.90609748 5.1875 2.5 C6.05181641 2.35691406 6.91613281 2.21382813 7.80664062 2.06640625 C11.90526577 1.40685738 15.83226024 0.79290734 20 1 C20.495 1.99 20.495 1.99 21 3 C20.25427734 3.17128418 19.50855469 3.34256836 18.74023438 3.51904297 C15.32664173 4.30357598 11.91331933 5.08927874 8.5 5.875 C6.74042969 6.27912109 6.74042969 6.27912109 4.9453125 6.69140625 C3.22441406 7.08779297 3.22441406 7.08779297 1.46875 7.4921875 C0.35242188 7.74919434 -0.76390625 8.00620117 -1.9140625 8.27099609 C-4.50670502 8.88346687 -7.08106583 9.53781188 -9.65625 10.21875 C-12.94722822 10.98767015 -14.80761192 10.99762127 -18 10 C-17.43628586 6.73045798 -16.50037734 5.17424117 -14 3 C-14.66 2.67 -15.32 2.34 -16 2 C-10.54538831 0.61470179 -5.63281599 -0.2396943 0 0 Z " fill="#BBB576" transform="translate(219,426)"/>
<path d="M0 0 C3.20616232 1.05005316 3.99540155 1.99199996 5.7109375 4.9765625 C6.27538311 6.18821016 6.82963671 7.4046444 7.375 8.625 C10.04751827 14.30838538 12.99634679 19.11749608 17 24 C17 19.71 17 15.42 17 11 C17.99 11.33 18.98 11.66 20 12 C22.24222251 16.72046844 22.70123923 21.84382918 22 27 C20 29 20 29 17.75 29.0625 C9.56659627 25.90073038 4.57889164 14.68140143 1.125 7.125 C0 4 0 4 0 0 Z " fill="#0B0303" transform="translate(361,90)"/>
<path d="M0 0 C1.32 0.33 2.64 0.66 4 1 C4.19465777 6.20206119 3.56078822 10.54768348 2.1875 15.5625 C1.68283203 17.45162109 1.68283203 17.45162109 1.16796875 19.37890625 C0.06195792 22.80790973 -1.29642246 25.83202916 -3 29 C-3.99 29 -4.98 29 -6 29 C-8.2223053 24.55538939 -6.90955194 20.32524144 -5.46875 15.8203125 C-4.82168227 13.9187257 -4.16516415 12.0203326 -3.5 10.125 C-3.16613281 9.15046875 -2.83226562 8.1759375 -2.48828125 7.171875 C-1.6669627 4.77831808 -0.83735349 2.38798455 0 0 Z " fill="#080101" transform="translate(36,135)"/>
<path d="M0 0 C0.99 0.33 1.98 0.66 3 1 C3.72843014 10.55052847 1.5571371 18.90161486 -1 28 C-2.9375 28.5625 -2.9375 28.5625 -5 29 C-6 28 -6 28 -6.375 24.5 C-6.33652572 16.58712357 -3.52605043 7.05210086 0 0 Z " fill="#060101" transform="translate(91,240)"/>
<path d="M0 0 C0.99 0.33 1.98 0.66 3 1 C2.54316622 8.08092354 0.79853333 13.5219136 -2 20 C-2.59322133 21.53788892 -3.177509 23.0792743 -3.75 24.625 C-4.1625 25.73875 -4.575 26.8525 -5 28 C-6.32 27.34 -7.64 26.68 -9 26 C-9.53701187 19.6410975 -7.76397282 15.32349138 -5.0625 9.625 C-4.68931641 8.80644531 -4.31613281 7.98789062 -3.93164062 7.14453125 C-1.19254032 1.19254032 -1.19254032 1.19254032 0 0 Z " fill="#070101" transform="translate(101,251)"/>
<path d="M0 0 C1.32 0.33 2.64 0.66 4 1 C3.33402849 5.4901584 2.31110561 9.76194793 1.0625 14.125 C0.72347656 15.32382812 0.38445312 16.52265625 0.03515625 17.7578125 C-0.79678798 20.36352463 -1.6790808 22.6187914 -3 25 C-4.32 24.34 -5.64 23.68 -7 23 C-7.73579518 14.90625299 -5.22197107 6.26935782 0 0 Z " fill="#040101" transform="translate(143,360)"/>
<path d="M0 0 C-3.71779209 2.21080689 -7.68572109 2.87453471 -11.87890625 3.65625 C-12.64621567 3.80404907 -13.41352509 3.95184814 -14.2040863 4.10412598 C-16.65586832 4.57495963 -19.10912701 5.03753618 -21.5625 5.5 C-23.18564849 5.81066748 -24.80869653 6.12186026 -26.43164062 6.43359375 C-30.27718965 7.17055018 -34.12454435 7.89738487 -37.97305298 8.61871338 C-39.79619431 8.96166235 -41.61826194 9.31030756 -43.44018555 9.65966797 C-44.88518433 9.93254639 -44.88518433 9.93254639 -46.359375 10.2109375 C-47.15956055 10.36353027 -47.95974609 10.51612305 -48.78417969 10.67333984 C-52.22129077 11.18004485 -55.532576 11.13084619 -59 11 C-49.03252487 4.35501658 -33.40549839 3.4235959 -21.8125 1.6875 C-20.11287109 1.43057373 -20.11287109 1.43057373 -18.37890625 1.16845703 C-12.18437137 0.28680004 -6.25574621 -0.17835813 0 0 Z " fill="#E1DCA6" transform="translate(318,362)"/>
<path d="M0 0 C1.32 0 2.64 0 4 0 C3.45902852 5.65426351 1.90679515 10.1607801 -0.4375 15.3125 C-0.75009766 16.02728516 -1.06269531 16.74207031 -1.38476562 17.47851562 C-2.67928331 20.38228575 -3.73296787 22.73296787 -6 25 C-6.99 25 -7.98 25 -9 25 C-10.52282125 20.38243356 -8.70639797 17.27067367 -6.75 13.0625 C-6.43675781 12.35931641 -6.12351563 11.65613281 -5.80078125 10.93164062 C-2.1295248 2.80460611 -2.1295248 2.80460611 0 0 Z " fill="#060101" transform="translate(44,144)"/>
<path d="M0 0 C0 0.66 0 1.32 0 2 C-0.90242432 2.20157715 -1.80484863 2.4031543 -2.73461914 2.61083984 C-6.11015321 3.36587355 -9.48526208 4.12275562 -12.86010742 4.88085938 C-14.31567254 5.20743778 -15.77139919 5.5332971 -17.22729492 5.85839844 C-19.33035366 6.3281464 -21.43280116 6.80055161 -23.53515625 7.2734375 C-25.42826538 7.69761963 -25.42826538 7.69761963 -27.35961914 8.13037109 C-29.83005153 8.72051798 -32.28476387 9.37989015 -34.72045898 10.10009766 C-38.27617416 11.07578188 -41.33036299 11.1497811 -45 11 C-45 10.34 -45 9.68 -45 9 C-40.20269247 7.70231106 -35.40133769 6.42129004 -30.59570312 5.15478516 C-28.96529038 4.72269356 -27.33602172 4.28625861 -25.70800781 3.84521484 C-9.06008834 -0.65891552 -9.06008834 -0.65891552 0 0 Z " fill="#12120D" transform="translate(230,421)"/>
<path d="M0 0 C-0.64092941 5.31055795 -2.80613678 7.23646942 -6.7890625 10.55078125 C-9.95448841 12.62564523 -12.25260277 12.92192922 -16 13 C-16.6875 10.6875 -16.6875 10.6875 -17 8 C-14.75368582 5.0357916 -11.8386313 3.80680675 -8.5 2.3125 C-7.5409375 1.87550781 -6.581875 1.43851562 -5.59375 0.98828125 C-3 0 -3 0 0 0 Z " fill="#BEB875" transform="translate(428,344)"/>
<path d="M0 0 C1.65 0.33 3.3 0.66 5 1 C5.20783455 6.71545019 5.20018889 12.6230678 3 18 C2.01 18.33 1.02 18.66 0 19 C-2.48042815 14.64940776 -2.4403486 10.90311231 -2 6 C-1 2.4375 -1 2.4375 0 0 Z " fill="#0D0303" transform="translate(102,271)"/>
<path d="M0 0 C1.439735 0.14033578 2.88337149 0.24416857 4.328125 0.31640625 C5.52695312 0.37924805 5.52695312 0.37924805 6.75 0.44335938 C7.9875 0.50233398 7.9875 0.50233398 9.25 0.5625 C10.09046875 0.60568359 10.9309375 0.64886719 11.796875 0.69335938 C13.86440671 0.79908543 15.93218281 0.90001295 18 1 C18 1.33 18 1.66 18 2 C17.03066528 2.00616333 17.03066528 2.00616333 16.04174805 2.01245117 C-1.42863955 2.20423114 -17.92652232 4.33793879 -35 8 C-35.33 7.01 -35.66 6.02 -36 5 C-31.51800262 4.11631703 -27.03402294 3.24383509 -22.54785156 2.3815918 C-21.0225175 2.08679976 -19.49776656 1.78897343 -17.97363281 1.48803711 C-15.78076656 1.05561075 -13.58602403 0.63419615 -11.390625 0.21484375 C-10.37165131 0.01023781 -10.37165131 0.01023781 -9.33209229 -0.19850159 C-5.8806631 -0.84635698 -3.34017758 -1.10016648 0 0 Z " fill="#CFCA96" transform="translate(350,370)"/>
<path d="M0 0 C1.32 0.33 2.64 0.66 4 1 C4.20852314 7.40629424 4.1583195 12.92972642 2 19 C1.01 19 0.02 19 -1 19 C-3.41647749 14.16704501 -2.36483465 7.34532779 -1 2.3125 C-0.505 1.1678125 -0.505 1.1678125 0 0 Z " fill="#020000" transform="translate(149,379)"/>
<path d="M0 0 C-2.61179044 2.61179044 -5.06670822 3.19088067 -8.5625 4.375 C-13.61027331 6.11057758 -18.50553568 8.00733182 -23.328125 10.30078125 C-25 11 -25 11 -27 11 C-27.38133299 9.0085944 -27.71325582 7.00720923 -28 5 C-26.36595117 3.36595117 -24.37942199 3.75911576 -22.125 3.625 C-17.00551298 3.21837408 -12.40135044 2.14758544 -7.5078125 0.62109375 C-4.90976799 -0.02234718 -2.66532662 -0.10986113 0 0 Z " fill="#AD3333" transform="translate(334,435)"/>
<path d="M0 0 C-0.33 0.99 -0.66 1.98 -1 3 C-3.51037857 3.87606472 -5.8576314 4.54226142 -8.4375 5.125 C-9.15873047 5.29676758 -9.87996094 5.46853516 -10.62304688 5.64550781 C-16.04820808 6.89392516 -21.432306 7.7323224 -27 8 C-27 7.01 -27 6.02 -27 5 C-9.34883721 0 -9.34883721 0 0 0 Z " fill="#151410" transform="translate(237,434)"/>
<path d="M0 0 C-2.18054945 4.3610989 -9.61509364 5.46937407 -14 7 C-20.49466261 9.12857329 -26.15574638 10.38741058 -33 10 C-33 9.34 -33 8.68 -33 8 C-31.97261719 7.75765625 -30.94523438 7.5153125 -29.88671875 7.265625 C-23.42083739 5.71055941 -17.08915318 4.15658768 -10.875 1.75 C-7.10011526 0.29242761 -4.10417656 -0.44369476 0 0 Z " fill="#0F0E09" transform="translate(217,402)"/>
<path d="M0 0 C1.66611905 -0.042721 3.33382885 -0.04063832 5 0 C5.33 0.33 5.66 0.66 6 1 C5.65529893 6.74501792 4.00426619 10.25132118 1 15 C0.01 14.67 -0.98 14.34 -2 14 C-1.11392405 8.43037975 -1.11392405 8.43037975 -0.4375 5.875 C0.15148641 3.67166673 0.15148641 3.67166673 0 0 Z " fill="#0B0202" transform="translate(47,157)"/>
<path d="M0 0 C1.14051606 4.98283716 2.22225866 9.94468132 3 15 C-0.44428265 13.55218207 -2.36130962 11.72305391 -4.75 8.875 C-5.36359375 8.15054688 -5.9771875 7.42609375 -6.609375 6.6796875 C-7.06828125 6.12539062 -7.5271875 5.57109375 -8 5 C-3.16129032 0 -3.16129032 0 0 0 Z " fill="#AD3333" transform="translate(79,61)"/>
<path d="M0 0 C0.66 0.33 1.32 0.66 2 1 C-3.39682251 5.87704657 -8.80511302 10.73552565 -14.30859375 15.4921875 C-15.9342534 16.94138986 -17.47675861 18.444151 -19 20 C-19.66 19.67 -20.32 19.34 -21 19 C-14.98967508 11.91536579 -8.45575057 4.22787529 0 0 Z " fill="#F6BE0A" transform="translate(100,170)"/>
<path d="M0 0 C0 0.66 0 1.32 0 2 C-2.18386418 2.67848208 -4.37230084 3.3422551 -6.5625 4 C-7.78066406 4.37125 -8.99882812 4.7425 -10.25390625 5.125 C-13.97923349 5.99514943 -17.19065949 6.15688404 -21 6 C-21 5.34 -21 4.68 -21 4 C-18.43923903 3.32595716 -15.87673417 2.660586 -13.3125 2 C-12.59126953 1.80921875 -11.87003906 1.6184375 -11.12695312 1.421875 C-7.33149039 0.45134572 -3.95384561 -0.24955239 0 0 Z " fill="#080806" transform="translate(206,426)"/>
<path d="M0 0 C-2 3 -2 3 -4.3203125 3.73046875 C-9.96485453 4.65026181 -15.28074449 5.21582096 -21 5 C-17.62779599 2.751864 -14.36195252 1.83131986 -10.5 0.8125 C-9.82324219 0.62236328 -9.14648438 0.43222656 -8.44921875 0.23632812 C-5.10039119 -0.65867411 -3.35701595 -1.11900532 0 0 Z " fill="#CFCA98" transform="translate(280,368)"/>
<path d="M0 0 C0 3.86695678 -1.41909971 6.5088452 -3 10 C-6.91402949 8.73058503 -8.79072873 7.48832306 -11 4 C-10.37351562 3.87882812 -9.74703125 3.75765625 -9.1015625 3.6328125 C-8.28429687 3.46523438 -7.46703125 3.29765625 -6.625 3.125 C-5.81289062 2.96257812 -5.00078125 2.80015625 -4.1640625 2.6328125 C-1.81326077 2.13341068 -1.81326077 2.13341068 0 0 Z " fill="#7D211B" transform="translate(120,362)"/>
<path d="M0 0 C-4.06565255 2.81832614 -8.01409758 3.84720561 -12.8125 4.6875 C-13.85180664 4.88182617 -13.85180664 4.88182617 -14.91210938 5.08007812 C-16.60644764 5.39557559 -18.30302158 5.69902647 -20 6 C-19 4 -19 4 -15.5078125 2.67578125 C-14.04943443 2.21320612 -12.58833811 1.75913624 -11.125 1.3125 C-10.39152344 1.07466797 -9.65804688 0.83683594 -8.90234375 0.59179688 C-3.37469059 -1.12489686 -3.37469059 -1.12489686 0 0 Z " fill="#B0AB6E" transform="translate(377,393)"/>
<path d="M0 0 C0.33 0.66 0.66 1.32 1 2 C-3.84241633 3.33583899 -7.93437617 4.25328119 -13 4 C-13 3.34 -13 2.68 -13 2 C-11.5882217 1.46605821 -10.17029756 0.94834896 -8.75 0.4375 C-7.96109375 0.14746094 -7.1721875 -0.14257812 -6.359375 -0.44140625 C-3.78033567 -1.05200662 -2.44252247 -0.98889737 0 0 Z " fill="#212014" transform="translate(331,358)"/>
<path d="M0 0 C0 0.66 0 1.32 0 2 C-4.84241633 3.33583899 -8.93437617 4.25328119 -14 4 C-13.67 3.34 -13.34 2.68 -13 2 C-8.55499776 0.66649933 -4.6681169 -0.29175731 0 0 Z " fill="#D1CD9A" transform="translate(348,382)"/>
<path d="M0 0 C-0.33 0.66 -0.66 1.32 -1 2 C-3.75078884 2.91692961 -5.35948913 3.10886083 -8.1875 3.0625 C-10.0746875 3.0315625 -10.0746875 3.0315625 -12 3 C-12 2.34 -12 1.68 -12 1 C-10.56496445 0.63597631 -9.12683494 0.28413409 -7.6875 -0.0625 C-6.88699219 -0.25972656 -6.08648437 -0.45695312 -5.26171875 -0.66015625 C-3 -1 -3 -1 0 0 Z " fill="#27261D" transform="translate(196,409)"/>
<path d="M0 0 C0.33 0.66 0.66 1.32 1 2 C-3.29 2 -7.58 2 -12 2 C-11.67 1.34 -11.34 0.68 -11 0 C-3.62025316 -1.53164557 -3.62025316 -1.53164557 0 0 Z " fill="#1C1B11" transform="translate(242,406)"/>
<path d="M0 0 C0.33 0.66 0.66 1.32 1 2 C-2.67410785 3.17571451 -6.16929183 3.07366746 -10 3 C-10 2.34 -10 1.68 -10 1 C-8.71073008 0.63720544 -7.41846728 0.28503302 -6.125 -0.0625 C-5.40570313 -0.25972656 -4.68640625 -0.45695312 -3.9453125 -0.66015625 C-2 -1 -2 -1 0 0 Z " fill="#191812" transform="translate(195,429)"/>
<path d="M0 0 C-5.63408618 3.01386706 -10.77887028 3.36561384 -17 2 C-17 1.67 -17 1.34 -17 1 C-11.27959989 0.1679418 -5.77759884 -0.12036664 0 0 Z " fill="#D8D299" transform="translate(318,362)"/>
<path d="M0 0 C1.18851562 0.19464844 2.37703125 0.38929688 3.6015625 0.58984375 C4.97441406 0.82380859 4.97441406 0.82380859 6.375 1.0625 C6.375 1.3925 6.375 1.7225 6.375 2.0625 C0.435 2.0625 -5.505 2.0625 -11.625 2.0625 C-6.98889866 -1.02823423 -5.503511 -0.91725183 0 0 Z " fill="#D1CC95" transform="translate(336.625,347.9375)"/>
<path d="M0 0 C2.0625 0.6875 2.0625 0.6875 5.0625 2.6875 C1.7625 3.0175 -1.5375 3.3475 -4.9375 3.6875 C-4.6075 2.6975 -4.2775 1.7075 -3.9375 0.6875 C-1.9375 -0.3125 -1.9375 -0.3125 0 0 Z " fill="#DAD59F" transform="translate(283.9375,366.3125)"/>
<path d="M0 0 C0 0.66 0 1.32 0 2 C-1.98 2.33 -3.96 2.66 -6 3 C-6 2.34 -6 1.68 -6 1 C-6.66 0.67 -7.32 0.34 -8 0 C-4.94736336 -0.98120464 -3.05263664 -0.98120464 0 0 Z " fill="#29281F" transform="translate(212,425)"/>
<path d="M0 0 C3.3 0 6.6 0 10 0 C9.67 0.66 9.34 1.32 9 2 C6.67843403 2.40729228 4.3431213 2.74438677 2 3 C2 2.34 2 1.68 2 1 C1.34 0.67 0.68 0.34 0 0 Z " fill="#1B1A11" transform="translate(277,364)"/>
<path d="M0 0 C2 1 2 1 3 3 C-0.3 3.33 -3.6 3.66 -7 4 C-3 1 -3 1 0 0 Z " fill="#A33030" transform="translate(388,419)"/>
<path d="M0 0 C0.33 0.66 0.66 1.32 1 2 C-1.64 2.33 -4.28 2.66 -7 3 C-6.67 2.01 -6.34 1.02 -6 0 C-3.42525708 -0.99667468 -2.51072708 -1.25536354 0 0 Z " fill="#191810" transform="translate(202,407)"/>
<path d="M0 0 C2 2 2 2 2 5 C-1.3 5 -4.6 5 -8 5 C-8 4.67 -8 4.34 -8 4 C-4.535 3.505 -4.535 3.505 -1 3 C-0.67 2.01 -0.34 1.02 0 0 Z " fill="#6E3232" transform="translate(360,141)"/>
</svg>
